<svg xmlns="http://www.w3.org/2000/svg" width="461.6" height="461.6" preserveAspectRatio="xMidYMid"><path fill="#fff" d="M259.743 3.87c-7.108 7.71.025 66.121-3.856 128.188-12.265-4.716-28.638 8.59-28.638 8.59s-6.579-.695-13.287-1.087h-.005c-7.142-.447-16.627.674-29.278 2.32-10.994-7.83-28.876-16.286-36.466.546-3.788 10.657 2.77 24.418 6.652 30.56-42.39 21.708-7.618 49.687 7.565 54.484-6.515 11.51-9.25 24.43-10.536 37.54.477 5.636 1.721 5.658 3.312 6.208 3.834 13.9-2.956 34.69 2.446 40.203 0 0-82.243 1.9-114.57 5.575h-.003c-22.708 4.73-15.13 42.39.61 63.93 8.627 11.5 18.375 22.045 30.065 30.416 0 0-43.937.28-52.15 5.752-6.2-.75-14.306-.532-15.375 7.066a7.98 7.98 0 0 0 4.65 8.074c-8.525-.122-11.313 4.425-10.826 9.17.488 4.81 3.758 6.446 4.497 6.756 4.577 1.914 38.737 1.665 60.795 4.65l-.004-.003c45.893 7.367 81.315 2.87 90.614.65 8.003 6.306 21.517 8.766 39.503 8.01h.002c7.633-.325 14.487-.71 19.715-2.48l.066-.025.073-.026.014-.006c23.518-7.1 19.39-2.89 44.558-.627 16.83-.578 23.17-5.768 38.613-4.324l.043.01h.006c10.392 1.417 52.58 8.452 46.736-10.365 9.83-.062 14.257-4.866 13.074-10.79 1.432.05 20.787-.85 17.54-12.92 16.4-4.23 15.12-.26 48.912-5.13 4.453-.33 11.893-1.144 15.013-3.016l.002-.002c3.99-2.395 5.493-8.182 1.645-12.29 5.663-1.073 12.314.266 17.093-3.505 3.545-3.782 1.962-6.42 2.791-10.092.957-3.94-.934-7.82-4.779-9.46v-.003c-7.285-3.19-22.023-.657-28.997.825 7.805-20.89 14.483-65.815-.016-71.776 0 0-8.085-.72-9.803-4.193v-.002l-52.417-116.01c3.56-2.24 5.13-3.94 3.56-9.957l-36.685-95.567c9.895-8.756-6.494-21.81-6.494-21.81-18.965-19.92-40.44-39.784-43.3-44.99l-.012-.016c-.62-2.51-1.444-5.037-2.92-7.198-2.929-4.29-6.82-5.595-9.652-5.71s-7.165.508-10.097 3.857"/><path fill="#127eb4" d="M442.044 382.924c-10.718 1.21-21.138 3.092-32.738 8.392l-24.7 8c4.4 0 16.6-2.6 25-5.6 18.3-6.4 28.34-7.91 37.44-8.61 10.5-.8 7.598-2.083-5.002-2.183m-1.14 4.93c-6.165.133-13.735 1.648-23.298 4.96-17.9 6.1-22.3 7.1-33.1 7.5-6.7.3-11.6 1.4-22.7 4.9-14.9 4.8-21.4 6-37.7 7.2l-10 .7 5.5 1.4c3.6.9 9 1.2 16 .9 9.4-.3 12.1-.9 26-5.7 0 0 16.352-6.786 28.5-6.6l7.7-1.3c2.6-.5 14.2-2.9 22-5.5 11-3.6 18-4.8 25.3-5.4 9.4-.7 9.4-.7 5.5-1.9-2.812-.825-6.004-1.24-9.703-1.16m-11.986 8.873c-1.6-.1-7.9 1.3-14 2.9l-22 4.8c15.8.3 25-1.1 33-4.8 5.4-2.5 5.7-2.8 3-2.9m-.467 7.82c-5.608.14-7.637 1.574-18.344 2.25l-10-.182c-17.1-.5-20.9-.1-32.7 3.5-25.1 7.8-33.4 8.6-53.9 4.6-13.6-2.6-22.6-2.2-43.7 1.7-24.4 4.6-37.5 6.4-50 7.1-16.3.8-13.8 2.6 4.3 3.1 13.8.4 19.9-.5 49.5-6.7 16.5-3.5 27-3.9 42-1.6 18.6 2.9 30.3 1.8 54-5.1 21.24-6.258 17.76-1.032 54.6-6.4 5.3-.4 10.5-1.3 11.5-1.9-3.12-.316-5.387-.414-7.256-.367m-257.64 13.368-49.695 9.427s-12.892.752-22.63.597c-53.02-.725-90.84-4.224-83.34-2.724 30.904 5.244 69.964 6.7 85.965 6.7 18.6.1 24-.7 46.9-6.2 19.7-4.8 27.5-5 36.1-.9 2.8 1.3 6.1 2.4 7.5 2.5s6.5 1 11.5 1.9c17.1 3.4 36.2 2.1 72.5-5 16.1-3.1 30.5-3.5 39.5-1.1 15 4 34.5 4.3 49.1.6 7.2-1.9 4.5-2-4.7-.3-12.6 2.4-31.4 1.5-43.9-2.2-14.6-4.3-25.8-3.9-51 1.7-19.1 4.2-19.9 4.3-38 4.3-14.116 1.24-19.98-.488-32.8-4.7-12.9-4.2-15.1-4.7-23-4.6m-94.168 1.366c-14.912.028-32.74.678-48.872 2.37l53.838.8c25.624-.063 21.288 2.896 39.506 3.298l27.494-5.428c-16 2.7-28.4 2.53-40.6.33-4.46-.802-16.454-1.397-31.366-1.37m91.267 4.534c-2.6.1-10.9 1.6-18.3 3.6-23.7 6.1-29.1 6.7-63 6.5l-66.966.9c44.588.852 89.346 7.962 134.66-4 13.9-4.6 19.9-5 23.4-1.9 2.1 1.8 2.2 2 .4 1.4-4.1-1.4-8.3-1.7-10-.8-1.5.9-1.4 1.1.9 1.7 1.5.4 4.9 2.3 7.7 4.2 14.5 10.5 39.7 12.7 73.4 6.4 18.5-3.4 29.9-5.1 45-6.4 12.5-1.1 13.7-1.4 7.5-1.5-4.1 0-13.6-.8-21-1.7-14-1.7-23.8-1.5-45.3.6-13.4 1.3-26.6.3-38.2-2.9-3.8-1.1-7.2-1.8-7.4-1.5-.8.7 10.4 5.3 17.4 7.1 9.6 2.3 40.2 2.4 56.9 0 6.6-.9 12.1-1.6 12.3-1.4.8.8-26.6 6.1-36.6 7-24.1 2.2-55-4.1-59.9-12.3-1.8-2.9-7.2-5-12.9-5m125.9 1.53c-2.45.047-4.926.246-7.7.57-12.6 1.4-12 1.8 2 1.2 7.2-.2 15 0 17.5.5l4.5.9-5.7.8c-3.2.4-5.8 1.1-5.8 1.5s3.7 1.1 8.3 1.4c4.5.4 12.7 1.4 18.2 2.2 11.1 1.5 21.9 1.7 25 .4 1.4-.6.1-.9-4.4-.9-3.7-.1-13.3-1.7-23-4-14.4-3.45-21.544-4.705-28.899-4.57m-133.41 8.53c-.287.045-.892.317-1.792.842-1.9 1.1-12.3 3.767-21.5 5.567l-7 1.4 7-.5c7.5-.4 18.7-3.366 22-5.766 1.375-1.063 1.774-1.618 1.293-1.543m138.02 3.31c-6.328.094-11.784.58-18.31 1.63-6.6 1-15.4 2.602-19.5 3.502-4.1 1-11.1 2.5-15.5 3.5l-8 1.9 9.5-.5c16.9-.8 22.1-1.4 36-4.4 19.7-4.2 24.7-4.5 39.4-2.5 7 .9 13 1.5 13.2 1.2 1.2-1.2-18.3-3.9-30.1-4.3q-3.345-.075-6.69-.03m-129.88 1.65c-.547.036-.928.318-.928.88 0 1.8 5.2 5.1 10.3 6.6 7.5 2.2 7.9 1.7 1.2-1.4-3.3-1.5-6.6-3.5-7.4-4.4-.875-1.125-2.257-1.743-3.17-1.68m-153.07 1.237c-5.64.06-8.72.292-7.32.742 1.7.5 47.164 2.3 58.464 4.1 16.2 2.6 24.5 3.298 39.5 3.698 31.1.7 52.9-1.8 56.7-6.6 1.1-1.3 1.1-1.5-.4-.9-12.6 4.7-53 5.6-78.8 1.8-11.25-1.65-51.224-3.018-68.145-2.84m285.31 1.954c-4.386-.013-8.562.59-14.162 1.79-7.7 1.7-14.3 2.997-31 5.897-4.9.9-4.5 1 4 .6 5.2-.2 15-1.6 21.8-3.1 12.1-2.6 12.5-2.6 19-1 5 1.2 11.1 1.6 24.2 1.5 15-.1 16.4-.3 9.9-1-4.2-.4-12.5-1.7-18.3-2.8-6.45-1.25-11.05-1.875-15.437-1.887m-137.8 3.338c-.638.05-1.312.2-1.862.45-1.7.7-1.2 1.2 3.6 3.4 3.1 1.4 8.3 3.1 11.5 3.7 7.8 1.5 30.5.5 36.4-1.5 2.5-.9 3.4-1.4 2-1.1-15.9 2.8-34.3 1-50-4.8-.4-.15-1-.2-1.638-.15"/><path fill="#b47e12" d="m271.474 10.573-5.116.022-.463 98.944-5.86 109.13 9.205 7.847 1.82-135.18-3.075-1.682zm39.707 282.01-1.153 29.86 22.862-4.415 30.863 7.038 35.442 34.13-4.174 1.674-23.993-20.54-61.159-10.303-9.907 22.054-78.786 3.423-35.047-6.732-38.953-2.18 7.628-9.883 15.938-2.142-1.44-14.63-128.52 6.54-2.797 20.5 37.502 55.249 152.52 16.005 145.58-20.404 46.39-23.804 7.827-44.573-5.33-16.16z"/><path fill="#7e12b4" d="m291.684 235.494.932-77.26-13.436-40.323-7.63-24.408-3.703-4.61 2.447-74.4 54.878 55.766L321.764 76l37.707 96.19-9.985-.947 58.35 136.5-66.974-14.346z"/><path fill="#b4b4b4" d="m248.414 139.564-18.678 9.575-46.86 1.084-18.29-9.02-7.34 2.169-1.147 11.28 9.835 18.419-15.594 15.898-3.615 9.63 2.838 8.184L174.9 222.1l-11.83 29.28 7.827 83.137-16.634 1.715-6.124 10.59 39.32 1.126 9.46 7.71 95.81-1.814 11.034-19.295 60.702 2.616 32.417 24.132 1.763-2.483-35.443-34.764-31.743-6.216-24.264 5.87 6.744-52.957-59.302-58.52 5.616-10.66-11.864-26.252 9.977-18.407-1.155-13.846zm-43.298 37.31 28.22 10.476-25.484 5.474zm-17.885 1.7-9.106 15.996-9.627-6.653z"/><path d="M269.504 8.02c-1.4-.2-3.1.366-3.8 1.166-1 1.2-1.3 10.626-1.2 41.326l.6 52.2v10.6l-2 32-2.1 32.8-.7 14.8-2.8-2.7c-1.9-1.8-2.5-3-1.8-3.5.8-.5.8-.8 0-1.3-1.8-1.2-5.3-8.6-4-8.6.8 0 .9-.4 0-1.3-.6-.8-.7-1.7-.3-2.1s.7-1.1.7-1.4c0-.4 1-2.1 2.1-3.7 3-4.2 5.4-11.8 5.4-17 0-14.1-11.8-16.5-25.8-5.3-3 2.4-5.1 3.3-6.7 3.1-11.783-1.124-23.168-1.673-35-.2l-9.2 1.2-7.6-4.698c-9.6-6-13.3-6.7-17.2-3.3-2.6 2.1-2.9 3.2-2.9 7.9 0 6 1.4 10.3 5.6 16.5 2.8 4.1 2.8 4.3 1.2 8.2-1.1 2.8-3.5 5.5-8.1 9-3.6 2.8-7.3 5.1-8.2 5.1-1.4.1-1.4.197.1 1.397 1.3 1 1.5 1.5.6 2.4-.7.7-1.9 1.203-2.8 1.203-1.2.1-1.2.298.3 1.398 1.5 1.2 1.6 1.5.2 2.6-1.4 1.2-1.3 1.6.6 3.7 0 0 3.29 2.44.573 3.82-1.257.883-1.09 1.075-.092.77 3.893-2.14 2.318.212 3.918 2.412 1.1 1.4 1 2-.4 3.1s-1.3 1.2.7.2c2.2-1.1 3.6-.6 6.2 2 .3.3 1.9 1.3 3.5 2.2 1.7 1 2.9 2.3 2.7 2.9-.2.7.4.9 1.3.5 2.12-.708 7.535.823 8.3 4.7.4 3.4-4.3 13.2-7.2 15.3-1.1.8-1.5 1.398-.9 1.398 1.6 0 .5 3.1-1.6 4.7-1.1.8-1.2 1.2-.3 1.3 1.3 0 1.7 3.2.5 4.4-.8.8-1.3 4-1.3 8.3 0 1.2-.5 2.5-1 2.8-1.6 1-1.2 2.5.5 1.9 1-.4 1.6.3 2 2.3.4 1.5.9 3.5 1.2 4.3.5 1.7 1.6 11.7 1.5 14-.4 6-1 10.8-1.6 12.2-.5 1.1-.4 1.8.3 1.8s.7.8.1 2.6c-1.2 3.1-1.2 3.7-.2 3 .4-.2 1.5 2.8 2.3 6.8l1.4 7.3-19.5 1.1-23.2 1.2-12.1.4-37.2 1.602c-34.2 1.3-34.5 1.298-37.2 7.798-3 7.2-.8 19.002 7.1 37.202l4.9 8.198s13.5 17.1 21.4 23.6c3.9 3.3 16.4 11.8 16.4 11.8s18.7 8.902 37.4 8.902c13 0 18.1-.5 27-2.4 16.1-3.4 25.4-3.2 38.9.9 10.9 3.3 10.9 3.3 27 2.7 12.9-.5 21.4-1.5 42.6-5.2 22.2-3.9 28.5-4.7 39-4.7 14.4 0 38.3-2.2 48.5-4.5 3.8-.8 10.7-2.9 15.3-4.5l42.2-12.4c5.697-3.318 9.984-7.59 12.648-12.108.47-.796.993-1.585 1.352-2.394l2.1-4.898s6.17-23.026 6.3-35c0-11.3-.4-16.6-1.4-19.4-1.6-4.1-2.2-4.5-11.2-6-3.1-.6-3.8-1.1-3.8-3 0-1.2-1.2-3.3-2.6-4.7-3.5-3.2-7.3-11-19.3-39.4l-13.1-30.5c-1.7-3.6-5.7-13-8.9-21l-5.8-14.5-3-6.8c-2.123-4.325-4.055-8.77-5.7-13.3l-1.6-4.702 3.7.6c2 .4 4 1.2 4.5 1.9 1.8 2.9.6-1.4-3.3-11.8l-12.5-33.4c-4.5-12.4-11.4-29.498-15.3-37.998-5.8-13-6.7-15.6-5.3-15.9 2.5-.5 4.2-2.1 4.2-3.9 0-.8-11.7-13.1-25.9-27.2-18.6-18.4-26.2-26.603-26.6-28.603-1-5.1-2.9-7.89-5.6-8.19m-.2 3.79c.7 0 1.3.4 1.3.9s-.5 1.098-1.1 1.298c-.7.2-1.198 11.5-1.598 35.3l-.9 35.4c-.7.7-.4-49.5.3-61.7.4-8.4.9-11.2 2-11.2m5.6 9c.2 0 2.1 1.8 4.2 4.1 3.6 3.7 3.7 3.9 1.3 2.8-1.6-.7-2.8-1.8-2.8-2.6 0-2.7-1.9-1.2-2.3 1.9-.3 2.5-.4 2.2-.5-1.5-.1-2.6-.1-4.7.1-4.7m-2.8 2.498.6 5.5c.4 3 .7 11 .8 17.7.1 10.3-.1 12.3-1.4 12.3s-1.5-2-1.5-12.3c0-6.7.3-14.7.7-17.7zm12.008 7.518 26.19 25.485c15.4 14.9 15.5 14.8-.5 14.3l-9.5-.3-8.9-11.7-14.168-19.026s-1.059-2.203-.054-7.323c1.053-4.977 6.932-1.437 6.932-1.437zm-8.468 9.925c.121-.34 4.546 5.68 11.358 14.96 5.8 7.9 10.6 14.8 10.6 15.3 0 .4-2.4.8-5.3.8-5.2 0-5.3-.1-6.6-3.8-.7-2-3-7.8-5.1-12.7-3.066-7.26-4.958-14.56-4.958-14.56m-2.943 21.063c1.1 0 1.7.4 1.4 1-.3.5-1.294 1-2.094 1s-1.4-.5-1.4-1c0-.6.894-1 2.094-1m-.1 5c.6 0 1 .9 1 2.1 0 1.1-.4 1.7-1 1.4-.5-.3-1-1.3-1-2.1s.5-1.4 1-1.4m-.496 5c.8 0 1.5.6 1.5 1.4 0 3.2-1.3 7.5-2.1 7-.5-.3-.9-2.3-.9-4.5 0-2.8.4-3.9 1.5-3.9m25.3 2h6.8l8.2 16.7c4.5 9.3 8.2 17.3 8.2 17.9 0 1-8.3 3.4-12 3.4-1.3 0-3.7-4.3-9.9-17.9-4.4-9.9-8.1-18.5-8.1-19 0-.7 2.7-1.1 6.8-1.1m13.7 0c3.4 0 4.5.4 4.5 1.6 0 1 .598 1.3 1.798 1 1.6-.5 2.8 1.7 8.4 14.6 4.3 10.1 6.1 15.5 5.4 15.9-.6.3-2.4.9-4.1 1.2-3 .5-3 .5-11.7-16.3-4.9-9.3-8.8-17.2-8.8-17.5s2-.5 4.5-.5m-35.13 1.453c.11-.147.257-.128.432.047.6.5 3.6 8.4 6.6 17.4 3.1 9 5.5 16.5 5.3 16.7-.1.2-2.8-4.5-5.9-10.4-4.8-9-5.8-11.9-6.4-17.7-.375-3.675-.36-5.606-.032-6.047m-4.37 7.547c1.1 0 2 .4 2 .9s-.9.7-2 .4-2-.7-2-.9.9-.4 2-.4m-2.054 2.76c.11-.03.23.012.355.14.5.5.5 1.7-.2 2.8-.9 1.6-1 1.5-.9-.9.15-1.2.413-1.95.746-2.04m5.284 4.274c.194-.17 1.296 1.19 2.67 3.566 1.2 1.9 1.5 3.2.9 2.7-.7-.4-2.1-.6-3-.5-1 .2-1.8 0-1.8-.5 0-.4-.3-1.9-.6-3.3-.5-2.4-.4-2.4 1.1.3.9 1.6 1.9 2.7 2.2 2.4.2-.3 0-1.5-.7-2.6-.674-1.313-.885-1.964-.77-2.066m-5.634 1.966c.3 0 .3 6.6 0 14.7l-1.1 44.3-1.1 41.8-.655 28.418c-1.624-1.843-4.342-3.81-4.342-3.81l.218-10.64c1.164-2.158 2.18-4.868 2.18-4.868-1.9-3.2-2.003-4.1-.803-27.3l1.6-26.1 3.4-53.3c0-1.7.3-3.2.6-3.2m18.228 59.687c7.935 43.644.496 89.483.496 89.483-4.29-4.295-12.885-10.212-12.885-10.212l-5.175-4.848.24-11.71 1.3-60.9 1.3-51m61 6.6c.3-.1 2.7 5.6 5.2 12.6l11.1 30.7 6.6 18.3c0 .2-1.9.3-4.2.1l-4.3-.3-2.6-8c-1.5-4.4-4.1-12.7-5.9-18.4-3.8-12.3-12.2-31.6-13.7-31.6-3 0-2-1.5 1.3-2 2.2-.4 4.4-.8 4.9-1 .6-.2 1.3-.4 1.6-.4m-13.6 3.2c2.8.2 3.3 1 9.1 13.8 6.3 13.8 16.9 42.8 15.9 43.7-.7.8-4.2-2.6-8-7.8-1.8-2.5-8.7-14.2-15.4-26l-12.1-21.5 3.8-1.2c2-.7 5-1.1 6.7-1m9.7 46c4.1 3.1 8.5 6.8 9.8 8.2l2.3 2.5h-3.5c-3.3 0-4.46-1.45-16-12.3-16.527-15.542-24.353-18.705-39.724-43.25-.5-1.5-.7-2.7-.6-2.7m-33.475 31.25c3.4 0 5.2.5 6.5 2 3 3.4 3.1 10.9.2 17.3-2.3 5-7 9.8-8.3 8.4-.3-.3 1-2.6 3-5.1 4.3-5.7 5.6-12.4 3.2-16.1-.9-1.4-2.3-2.5-3.2-2.5-2.2 0-6.6 2.5-8.9 5-1.6 1.8-1.7 2.3-.5 3.1 1.3.9 1.3 1 0 .7-.8-.3-2.4.7-3.6 2.1l-2.3 2.6-4.2-4.2 3.3-4.4c4.9-6.3 9.1-8.9 14.8-8.9m-85.24 1.088c1.94.137 4.09.762 5.84 1.812 3.7 2.2 8.4 8.1 8.4 10.4 0 3.2-2.2 2.9-5.2-.7-3.1-3.7-7.5-6.6-10.2-6.6-4.1 0-2.3 8.9 2.8 14.5 1.5 1.6 2.3 3.1 1.7 3.3s-.8.9-.4 1.5c.3.7-.6.1-2.2-1.3-1.5-1.4-3.6-4.3-4.6-6.5-2.1-4.5-2.5-13.5-.7-15.3.9-.9 2.624-1.25 4.561-1.112m39.938 7.012c.2 0-1.1 2-2.7 4.6-1.7 2.6-3 5.3-3 6 0 1.7-1.7 1.7-2.3 0-.2-.6-.7 1.5-1.1 4.8-.7 5.4-3.9 21.1-5 24.6l-1.1 4.4c-.5 2.4-.4 2.8.6 1.7 1.6-1.5 5.1-1.6 6.6-.1 1.1 1.1 4.3-13.9 4.3-20.5 0-4.6 1.8-8.2 6.1-12.1 1.8-1.7 2.7-2.2 2-1.3-1.8 2.5.2 2.3 2.4-.2 1-1.1 2.2-1.7 2.8-1.3s.7.1.2-.6c-.5-.9-1-1-1.8-.2-1.8 1.8-3.1 1.3-1.6-.7 1.1-1.4 1.1-1.5-.1-.5-2.1 1.9-3.4 1.6-1.9-.5q1.95-2.25-.3-.3c-1 .7-1.5 1.7-1.2 2.2s-.2.6-1 .3c-.9-.3-1.6-1.1-1.6-1.8-.1-.6-.9.5-2 2.4-2.4 4.4-2.6 2-.3-4.2.9-2.7 2.4-5 3.2-5.3 2.4-.7 12-.6 17.4.1q6.9.9 3.6 3c-.8.5-.6 1 .5 1.6.9.5 2.1.6 2.6.3s.8 0 .5.7c-.2.7 2 3.3 5 5.8 3 2.4 5.7 5.2 6 6.1.3 1 2.2 2.9 4.1 4.4 2.9 2.2 3.4 3.2 3 5.1-.5 1.7 0 2.9 1.3 4 2 1.7 1.8 4.8-.3 3.8-.6-.2 0 .3 1.3 1.3 1.4 1 3.4 2.6 4.5 3.6 2.1 1.8 2.1 1.8-.2.7-2.2-1.1-2.3-1-1.3.9.6 1.1 1.6 2.3 2.1 2.6.6.4.8 1.1.4 1.6-.3.6.2 1.9 1.2 3 1.6 1.8 1.6 1.9-.1 1.9q-1.65 0-1.2 1.5c.7 1.8-1.1 3-3.8 2.7-1.8-.2-1.9-.2-.2.8 2.6 1.6 1.1 3-3.1 3-2.6 0-3.3.3-2.3.9 1 .7-.8 1.2-5.7 1.7-4 .3-7.2 1-7.2 1.4s1.4 1.3 3 2c1.7.7 3.3 1.7 3.6 2.2.4.5-.9.2-2.7-.8-3.8-1.9-18.4-2.7-16.9-.9.5.6-1 1.1-4.2 1.2-2.7.1-8.1 1.2-12 2.4-7.8 2.4-14.1 2.2-17.9-.5-2.2-1.5-2-1.6 6.6-1.6 9.5 0 14.6-1.7 18.9-6.2 1.7-1.8 2.8-1.9 11.5-1.4l9.6.5-6-1.4c-5.5-1.3-18.6-2-15.8-.8 1.8.7-1.5 3.9-6.1 5.8-2.8 1.2-5.3 1.4-9.2.9-5.6-.7-8.5-2.4-4-2.4 3 0 5.6-3.3 5.6-7.1 0-7.3-14-9.4-17.2-2.5-1.5 3.5.4 7.9 4.5 9.9l3.2 1.6h-3.2c-4.1.1-7.3-3.2-7.3-7.5 0-2.4 1.4-5 4.9-9.7 5.6-7.3 7.1-11.6 7.1-20.3 0-5.1-.4-6.5-2.5-8.8-2.8-3.1-4.6-3.2-9.8-.7l-3.9 1.8 3.2.7c1.9.3 3.8.1 4.6-.5 1.8-1.5 5.2.5 6 3.7s-.9 5.2-3 3.5c-2-1.7-3.9-1-12.1 4.4-3.7 2.5-7.3 4.5-8 4.5-1.6 0-10.5 8.7-10.5 10.2 0 .7-.3 2.3-.6 3.5-.6 2.2-.4 2.3 7.7 2.4 7.5.2 7.9.2 3.2.8-6.5.8-7.2 1.5-3.4 3.2 1.7.8 3.1 1.7 3.1 2.1 0 .5 2.4.9 5.3.9l5.2.1-5 1.3c-5.5 1.4-10.2 1.9-9.2.8.4-.3-1.6-2.2-4.4-4-5.1-3.5-7.5-7.4-6.3-10.2l.9-2.1c2.1-5.6 2.9-7 4.3-7.5 2.8-.9 8.8-7.1 13.2-13.4 2.2-3.4 4.5-6.1 5-6.1.6 0 .9-.4.7-.9-.1-.5 2.6-3.8 6-7.3 5.4-5.7 6.8-6.6 11-7.3 9.1-1.4 13.8-2.2 14-2.4m-15.397 10.827c-.185.048-.304.198-.304.473 0 .2.7.9 1.5 1.6 1.3 1.1 1.4 1 .9-.4-.374-1.05-1.538-1.82-2.096-1.673m-3.104.073c-.3 0 .3.9 1.3 2s2 2 2.3 2-.3-.9-1.3-2-2-2-2.3-2m6.548.425c-.535-.038-.422.375.253 1.575 1.3 2.3 2 2.6 2 .6 0-.8-.7-1.6-1.5-2-.325-.1-.575-.163-.753-.175m100.89-24.574c.4.188 1.824 1.886 4.124 5.036 2.1 2.9 26.544 35.612 31.244 41.712 4.7 6 12.6 16.5 17.4 23.3 6.7 9.4 10.9 14 17.7 19.6 4.9 4.1 9.7 7.9 10.8 8.4 1.5.9 15.1 30.1 15.1 32.6 0 1.2-12.713-6.113-18.23-12.34-27.334-36.24-62.237-73.42-78.138-118.31m-74.957 25.56c-2.054-.035-5.225.552-5.975 1.49-1 1.2-.9 1.4.5.8 2-.7 3.4.8 1.7 1.9-.8.5-1 .2-.5-.7.4-.8 0-.5-.8.5-1.9 2.4-1.4 3.1 1.1 1.7 1-.6 3.6-1.8 5.8-2.5 2.9-1.1 3.4-1.5 1.7-1.5-1.3-.1-2.1-.4-1.8-.9.336-.526-.494-.77-1.726-.79m-2.418.82c.175.017.518.143 1.043.37 1 .3 1.5.898 1.2 1.198s-1.1 0-1.8-.7c-.564-.625-.735-.898-.443-.87m10.372 1.87c-.988-.02-2.253.45-5.628 1.7l-4.5 1.5 2.9.8c1.7.5 5.3.4 8 0 2.8-.5 4-.9 2.6-1-1.8-.1-2.1-.4-1.2-1 1.1-.7 1-1-.3-1.5-.788-.3-1.28-.49-1.872-.5m-42.428 1.9c.3 0 1.3.9 2.3 2s1.6 2 1.3 2-1.3-.9-2.3-2-1.6-2-1.3-2m41.3.1h2l-2 .9c-1.1.5-2.7.9-3.5.9-1.3.1-1.3 0 0-.9.8-.5 2.4-.9 3.5-.9m-46.103 1c1.1-.1 1.7.2 1.3.5-.3.3-1.2.4-1.9.1-.8-.3-.5-.6.6-.6m47.384 1.893c-1.08.022-1.782.28-1.782.806 0 .5 1.6.9 3.6 1 4.7.2 5.8 1.2 1.3 1.2h-3.4l3.2 2.1c2.5 1.6 3.6 1.8 5 1 1.7-1 1.7-1-.2-1.2-1.7-.1-1.6-.2.5-.8 2.4-.7 2.3-.7-1.2-2.4-2.375-1.126-5.22-1.743-7.02-1.706m83.654-15.88c12.757 7.074 23.475 16.873 29.142 22.573 14.607 11.944 22.25 21.39 28.623 39.813-.5-.6-7.162-6.437-12.262-13.087-12.126-13.932-32.53-38.678-45.503-49.3m-101.97 16.03c-.26.04-.664.444-1.264 1.156-2.3 2.7-5.2 12-5.2 16.5 0 4.1.6 5.4 4 9.6 2.3 2.7 4.4 5.5 4.8 6.3.7 1.1 1.8 1.2 6.1.2 3-.6 11-.9 18.7-.7 7.4.1 13.4-.1 13.4-.5s-.7-1.9-1.6-3.2c-1.5-2.3-1.5-2.5.2-2.5 1.4 0 1.1-.7-1.6-3.5-1.9-1.9-3-3.5-2.5-3.5 2.1 0-3.4-2.7-8.7-4.3-3.2-1-8-3.6-11-5.9-5.1-4.1-7.6-4.7-13.3-3.7-1.7.3-2-.1-1.7-2.9.125-2.187.095-3.124-.337-3.055m131.38.006c.45-.278 2 .2 4.45 1.55l3.3 1.8c.1 0 .5 1.1.9 2.3.6 2.1.5 2.2-1.2 1.4-1-.6-3.4-2.4-5.3-4.1-1.95-1.65-2.6-2.678-2.15-2.95m-162.73.874c-.882.014-2.257.39-3.32 1.077-3 1.7-2 2.8 1.2 1.3 1.7-.9 3-1.7 3-2 0-.263-.35-.385-.88-.377m173.48 2.37c.612.052 1.58 1.693 2.394 4.506.9 3.3.9 3.3-1 1.6-1.1-1-2-3-2-4.4 0-1.2.24-1.74.606-1.707m-180.6 1.607c-.5 0-1.5 1-2.1 2.2-1.2 2.3-1.2 2.3 1 .4 2.3-2.1 2.6-2.6 1.1-2.6m67.825 1.05c-.7-.05-1.776.25-2.826.95-2.3 1.4.2 3.2 5 3.5 3.9.2 4 .2 2.3-1.5-1-.9-2.4-1.5-3.2-1.2-.9.3-1.2.1-.7-.6.45-.7.126-1.1-.574-1.15m-21.382 5.582q.24.01.457.068c1.1.3 2.8 1.4 3.7 2.4 1.7 1.9 1.7 2.1-.5 4.2s-2.3 2.1-1.1.1c1.9-3.1.6-5.4-3-5.4q-3.15 0-2.4 1.2c.4.7.3.8-.5.4-.7-.4-1.5.2-2 1.6-.7 1.6-1 1.8-1 .6-.094-2.156 3.942-5.28 6.343-5.168m-33.972 1.443c1.375-.175 2.526.126 2.526 1.026 0 .6-.8.8-1.9.4-2.3-.7-4.5 1.8-3.8 4.5.7 2.6.1 2.598-1.3-.102-.9-1.6-.8-2.5.6-4 .9-1 2.5-1.65 3.874-1.824m33.652 7.018c.614.057.876.282.576.507-.3.3-1.2.4-1.9.1-.8-.3-.5-.6.6-.6q.417-.036.724-.006zm-30.088 12.38c2.705-.192 7.112.277 7.862 1.027.9 1-.5 1.1-5.8.7-3.7-.3-5-.7-4-1.3.32-.225 1.036-.363 1.94-.427m41.443 1.64c-3.2.002-6.093.125-7.48.387-.8.2-3.3.7-5.5 1.1-3.8.8-3.6.8 3.5 1.5 4.1.3 10 .9 13 1.3 4.3.6 5.2.5 4-.4s-.6-1 2.7-.6c4.8.7 6.7-.9 2.8-2.4-1.5-.563-7.687-.89-13.02-.887m-52.085.988c1.1-.1 1.7.2 1.302.5-.3.3-1.2.4-1.9.1-.8-.3-.5-.598.598-.6m55.728.992c.614.056.876.282.576.507-.3.3-1.2.4-1.9.1-.8-.3-.5-.6.6-.6q.418-.037.724-.007m79.574 1.904c.6 0 4.098 6.1 7.798 13.6 7.7 15.4 17.4 30.5 26.5 41.2 3.5 4.1 9.1 12.3 12.6 18.3l6.3 11-5.2-2.803c-7.1-3.9-22.172-21.428-28.372-30.828-2.7-4.3-8-13-11.7-19.4l-17.87-31.286-3.816-10c-.3-6.6-2.353-19.284-1.753-19.284zm-49.58 1.64-.24 5.665c-1.9-2-2.88-3.705-2.18-4.005.415-.138 1.48-.958 2.42-1.66m-45.518 1.362c-.3 0-.8.4-1.1 1-.3.5-.1 1 .4 1 .6 0 1.1-.5 1.1-1 0-.6-.2-1-.4-1m-42.765.055c2.29-.057 4.485 1.067 6.96 3.542l3.7 3.5-5.003-.6c-6.8-.9-8.6-1.5-8-2.6.3-.5.003-.6-.797-.4-.7.3-2.402.2-3.802-.4l-2.4-.902 3-.698c1.7-.4 3.5-.8 4-1a7.8 7.8 0 0 1 2.34-.442m44.99.983c-.525-.037-.825.212-.825.762 0 .4 1 .9 2.2.9 1.8.2 2 0 .8-.7-.9-.6-1.65-.924-2.174-.962m37.87 2.96c.7 0 2.1 1.2 3.3 2.7 1.3 1.7 1.7 2.997 1.1 3.597s-.2 1.7 1.2 2.9c1.2 1.1 1.5 1.6.7 1.2-1-.5-.9 0 .4 1.4 1.2 1.3 1.4 2.202.7 2.202s.1 1.1 1.6 2.4l2.8 2.5-2.5 1c-1.4.5-2 1-1.3 1 .6.1 2.2 1.5 3.4 3.2 2.2 3.1 2.2 3.1.1 2-3-1.6-4-1.4-1.5.4 1.5 1 2.1 2.5 2.1 4.5-.1 3-.2 3-2.1 1.3-1.9-1.8-2-1.7-.8.4.6 1.3 1.6 2.3 2.2 2.3s.6.7-.1 2c-.8 1.6-.8 2.2.3 2.6.7.2 1.4 1.2 1.4 2.1q0 1.8-2.7-1.5c-2.7-3.3-4-4-4-2.1 0 .5.4.8.9.5s1.1.1 1.5.9c.3.8 0 1.5-.7 1.6-.7 0-.2.4 1 .9 1.6.7 2.1 1.4 1.6 2.6-.4 1.2-.3 1.5.5 1s1-.1.5 1c-.3 1-.2 1.5.3 1.2.5-.4 1 3.5 1 9 .1 8.8.1 9.2-.7 4.2-.5-3-.6-6.6-.4-8 .5-2.2.4-2.3-.6-.7-.6 1-1 3.5-.8 5.5.3 5.9 0 8.4-1.1 7.7-.5-.3-1-2.1-1-3.8 0-1.8-.5-3.9-1-4.7-.7-1-.8.4-.4 4.5.4 3.3 1.1 6.1 1.6 6.3.4.2.8 1 .8 1.8 0 .9-.4 1.3-.9 1-1-.7-2.6 6.5-2.4 10.4.2 2.2-.3 2.314-.6.5-.716-4.32-1.4-4.2-1.4-4.2-.2-.1-1.1.6-2 1.7-3.258 3.98-4.4 6.4-4.4 6.4-.7.8-.9 1.7-.5 2.1.4.5-.2.5-1.2.1-1.5-.5-1.6-.4-.8.6s.5 2-.9 3.8l-1.9 2.5 1-3c.9-2.8.9-2.9-.5-1-.8 1.1-1.9 2.5-2.4 3.1-.6.8-.5 1.6.2 2.3.9.9.8 1-.7.5-1.5-.6-1.7-.4-1.1.7s.5 1.2-.5.2c-1.2-1.1-1.1-1.9.4-4.9.9-2 1.5-3.9 1.2-4.1-.2-.2-.7.5-1.1 1.7-.5 1.5-1 1.8-1.8 1.1-1.5-1.2-1.9 3.5-.6 6.4 1 2 1 2-.5.1-.9-1.1-1.6-3.1-1.7-4.5l-.1-2.6-.8 2.5c-.5 1.5-.6-.7-.4-5.5l.4-8-1.7 3.5c-1 1.9-2.1 3.6-2.5 3.8s-.4 1-.1 1.9c.4 1.1.2 1.4-.5.9-.7-.4-1.5-.1-1.8.8s-1 1.3-1.5 1-.6.2-.2 1.2c.5 1.4.8 1.3 1.9-.7.7-1.3 1.3-2 1.4-1.6 0 1.1-3.9 8.7-4.6 8.7-.2 0 0-.9.6-1.9 1.3-2.6 1.3-3-.5-2.7-1.6.2-6.7 4.7-6.1 5.4.2.2 1.5-.2 2.8-.8 1.9-1 2.1-1 1.1.1-1.9 2-1.6 4 .5 3.2 1.5-.6 1.6-.5.2 1.2-.8 1-1 1.6-.3 1.2.6-.4 1.4-.3 1.8.2.3.6-2.2 4.1-5.6 7.8-5.8 6.4-13.9 20.4-13.9 24.2 0 1.4-.1 1.4-1 .1-.5-.8-1-3.5-1-6-.1-4.2-.2-4.4-1.5-2.6-.8 1.1-1.5 3.1-1.5 4.4 0 1.5-.5 2.2-1.2 1.9-.9-.3-1.2-1.9-1-4.7.4-4.7-.8-4.7-2.8 0-1.7 4.1-3 3.8-2-.6l.8-3.6-2.5 2.4-2.6 2.3 1.3-2.4c.6-1.3 2.7-4.4 4.6-6.8 1.9-2.5 3.4-4.9 3.4-5.4 0-2 6.9-15.5 9.2-17.9 1.2-1.4 2-2.1 1.6-1.5-1.3 2 .5 2.6 2.4.8 1.8-1.6 1.8-1.6 1.2.1-.6 1.6-.5 1.7 1.5.6 1.3-.6 2-1.4 1.7-1.7s1.9-3.3 4.8-6.7c2.9-3.3 6.5-8.1 8-10.6l2.7-4.5-2.8 3.5c-5.9 7.3-10.8 12.1-11.1 11-.3-.7-1.6-.1-3.6 1.7l-3.1 2.8 2.8-3.1c4.2-4.7 3.2-5.1-2-.8l-4.7 3.9 5.2-6.7c5.5-6.9 7-10.6 3-7.2-1.3 1-1 .4.6-1.4 1.6-1.7 3.2-3 3.4-2.7.3.3 1.1-.3 1.9-1.3.8-.9.5.1-.8 2.3-1.2 2.2-2.9 4.8-3.7 5.8-1.3 1.5-1.4 1.9-.1 3 .7.6 1.1.8.7.4-.3-.5 1.1-3.4 3.3-6.4 2.1-3.1 3.9-6.3 3.9-7.1 0-1.2.3-1.2 1.5-.2 1.3 1.1 1.1 1.8-1.9 5.5-2 2.3-3.2 4.6-2.8 5 .4.5.2.5-.5.1-1.3-.7-2.6 1-2.8 3.8-.2 1.4.5 1.1 2.6-1.5 1.5-1.8 2.5-3.7 2.3-4.1-.3-.4.5-1.2 1.6-1.8s1.8-1.5 1.5-2.1c-.4-.5-.2-.9.3-.9s1.5-1.1 2.2-2.5c.7-1.3 1.7-2.2 2.1-1.9.5.2 1.2-1 1.7-2.8.7-3 .9-2.5 2.4 5.2.9 4.7 1.5 9.8 1.3 11.5-.1 1.6 0 2.1.2 1.1.4-1.6.7-1.7 1.4-.5 1.2 1.8.2-6.5-1.7-14.2-.8-3.1-1.4-8.3-1.4-11.4 0-5.8 0-5.8-2-4s-2.1 1.8-1.4-.1c.4-1.2-.5-.6-2.5 1.6-2 2.1-2.6 2.5-1.7 1 2.7-4.2 1.8-4.3-3.1-.3-3 2.3-3.9 2.8-2.5 1.2 1.2-1.4 2.2-3.1 2.2-3.8 0-1.5-3.9 2.9-6.9 7.9-2.5 4.2-2.6 3.8-.5-2.4 2.3-6.5 1.1-6.8-2-.4-2.6 5.4-3.4 6.1-1.6 1.4.6-1.7.6-2.6 0-2.6s-1 .5-1 1.1c0 .5-.5.7-1 .4-.6-.4-.9-.3-.8.2.1.4-.4 2.5-1.2 4.6-1.2 3.2-1.6 3.5-2.2 2-.5-1.1-.6-.5-.3 1.6.5 3.4.5 3.4-1.5 1.6-1.1-1-2-1.3-2-.7s.5 1.4 1 1.7c.6.3 1 1.4 1 2.3-.1.9-.9-.1-1.9-2.3l-1.9-3.9-.7 3.7c-.4 2-.9 3.7-1.2 3.7-1 0-3.1-2.7-3.5-4.6-.3-1.3-.7-.7-1.3 1.9-.5 2.8-.1 5.7 1.8 11.9 1.4 4.5 2.5 8.4 2.3 8.5-.8.8-9.6-20.3-9.6-23 0-1.7-.3-2.7-.7-2.3-.8.8-1.1 12.6-.3 12.1.3-.2 1.4 1.1 2.3 2.8 1.8 3.2 1.8 3.2-1.7-.5-3.9-4.2-4.3-5.3-6.1-15.2l-1.3-7.1-.1 5.9c-.1 6.8-.8 6.7-2.7-.1-1.1-4.3-1.3-4.4-1.3-1.6-.1 1.7.3 4.3.9 5.7.5 1.4.7 2.6.5 2.6-.6 0-3.6-5.8-4.6-9l-.9-2.5.4 2.7c.2 1.5-.1 2.5-.5 2.2-.5-.3-.9-1.2-.9-2s-.4-1.3-.9-1c-.5.4-.7-.4-.4-1.6.4-1.8.2-2-.5-.9-.9 1.2-1.2.9-1.8-1.5-1-4.3-1.6-4.9-2.9-3-1.1 1.4-1.4.5-2.5-5.6-1.4-8.5-1.4-9.3-.6-13.3 1.2-5.5 4.8-14.5 5.8-14.5.5 0 .8-.6.8-1.4s.5-1.8 1.2-2.2q1.05-.75.3.6c-.6 1-.2 1.1 1.9.6 3.4-.8 3.3-.1-.1 1.8-1.6.8-2.2 1.5-1.5 1.6 2 0 1.4 1.8-.9 2.5-1.1.4-1.8.9-1.5 1.2.3.4.1 1.2-.5 2-1.6 1.9-.8 1.7 5.1-1.3 2.8-1.4 5.4-2.3 5.7-2s-.2.8-1.1 1.2c-.9.3-1.4 1-1.1 1.4.3.5 0 1.2-.6 1.6-.8.4-.9.3-.5-.4 1-1.7.1-1.5-4.4.8-2.2 1.1-4 2.5-4 3.1s1.3.1 2.9-1c3.1-2.3 4.1-2.6 4.1-1.3 0 .5-1.8 1.6-4 2.6-4.9 2.2-5.2 3.5-.5 3.1 2-.2 3.3 0 2.9.6-.3.5-1 .7-1.5.3-1.3-.7-4.1 1.5-3.3 2.7.3.5 1.4.9 2.5.9s1.7.4 1.4 1c-1 1.6 1.1 1.2 2.5-.5 1-1.2.9-1.5-.6-1.6-1.7-.1-1.7-.2-.1-.6.9-.2 1.7-.9 1.7-1.5s.3-.9.6-.5c.4.3 1.3-.1 2.1-.9.9-.8 1.8-1.2 2.1-.9.7.6-5.5 7.2-8.2 8.7-1.3.7-1.6.7-1.2-.1.4-.6.3-1.1-.3-1.1-2 0-2.1 1.9 0 2.5 1.6.5 3-.1 5.5-2.6 1.9-1.8 3.4-2.9 3.4-2.5 0 .5-2.1 2.8-4.7 5.2-2.7 2.4-4.3 4.4-3.6 4.4.6 0 2.6-1.6 4.5-3.6 5.5-5.9 7.4-6.1 3-.3-2.3 3-3.9 5.5-3.7 5.7.7.7 2.7-1 4.6-4.2 2.5-4.1 2.5-2.1-.1 2.6-1.5 2.8-1.6 3.6-.5 3.2.8-.3 1.7-1.4 2-2.5.4-1.1 1.1-1.6 1.7-1.3.7.4.8.2.4-.4-.4-.7-.2-2 .3-2.9 1-1.7 1.1-1.7 1.2.2.1 1.1.2 2.6.2 3.2-.1.7.3 1.3.8 1.3s.9.8.9 1.7c0 1 .5 2.5 1.1 3.3.8 1.1.9-.3.4-5-.4-3.6-.4-6.2 0-5.8.4.3 1 3.7 1.3 7.5.8 7.4 2 8.4 4 3.1l1.2-3.3-.5 4c-.3 2.2-.2 5.2.4 6.5.7 1.8 1 2 1 .7.1-.9.5-1.7 1.1-1.7.5 0 .7-.8.3-1.8-.3-.9-.2-1.3.2-.9.5.4 1.7-1.2 2.7-3.5 1-2.4 1.7-3.3 1.4-2.1-.3 1.5.1 2.3 1 2.3.8 0 1.1-.6.7-1.7s-.3-1.4.5-.9c.7.4 1.3.2 1.3-.3.1-.6.3-1.6.4-2.1.1-.6.4-1.6.5-2.3.1-.6.6-.1 1 1.3.8 2.4.8 2.4.9.2.1-1.2.6-2.2 1.2-2.2.7 0 .9.9.6 2.1-.5 2-.5 2 1.3.4 2.1-1.9 4.3-9.5 3.4-12.2-.5-1.7-.5-1.7.6.1.9 1.4 1 2.8.1 5.6-.6 2-1.1 4.4-1.1 5.1 0 2.2 1.8-1 3.1-5.5.6-2.1 1.3-3.6 1.5-3.3.3.3.1 2.1-.4 4.1-.6 2-.6 3.4-.1 3.1s1.3-2 1.8-3.8l.9-3.2.1 3c.1 2.3.4 2.7 1.1 1.5 1.3-2.1 1.2-6.7-.2-7.6-.6-.4-.8-.3-.4.4.3.6.2 1.3-.4 1.7s-.9-1.4-.9-4.8c.1-3-.2-6.1-.6-6.8-.5-.7.4-.4 1.8.7 1.5 1 2.7 2.3 2.7 2.7 0 .5.4.6.9.3 1.3-.8 3.8 3.5 4.6 7.8.7 3.2 2.5 5.2 2.5 2.5 0-.5.4-.8.9-.5 1.2.8 2.5-4.9 1.5-6.5-.5-.8-.9-.7-1.6.2-.8 1.1-.9 1-.4-.4.3-.9.2-1.7-.2-1.7s-1.5-1.4-2.4-3c-2.7-4.8-.2-3.5 3.9 2 2 2.7 4.1 4.6 4.6 4.3.6-.3-1.6-3.1-4.7-6.1-3.2-3.1-5.9-6.3-6.1-7.3-.3-1.7-.1-1.6 3.5.2 2.2 1.1 4.5 1.7 5.1 1.3.7-.4.9-.3.5.4-.3.6.2 1.5 1.1 2.1 1 .6 1.3 1.1.6 1.1-.6 0-1.5-.5-1.8-1-.3-.6-1.1-1-1.8-1-1.7 0 5.8 4.9 10.1 6.6l3.7 1.4-3.4-2.9c-1.9-1.7-3.9-2.7-4.4-2.4q-.9.45-.3-.6c.4-.6 0-1.4-.9-1.7-1.3-.6-1.4-.8-.3-1.5 1-.7 1.1-.9 0-.9-.8 0-1-.5-.6-1.2.5-.8.1-.9-1.2-.4-1.5.6-1.7.5-.6-.6 1-1 1.6-1 3.3 0 1.2.8 2.3 1.2 2.5.9.2-.2-1.1-1.2-2.9-2.1-1.8-1-1.7-2.6.8-1.4 2.4 1.2 4.2 2.5 4 2.9-.3.4.5.6 1.8.6 1.2-.1 4 .2 6.2.6 3.6.7 3.8.6 1.7-.6-1.2-.7-1.9-1.7-1.5-2.1s-.3-.6-1.7-.3c-1.4.2-1.9.2-1.2 0 1-.4.8-.9-.7-1.9-1.2-.9-2.6-1.2-3.2-.8-.8.4-.7.9.2 1.5 2.8 1.7-2.2.9-5.2-.8-3.1-1.8-3.5-4.3-.9-5 1.3-.4 1.3-.3 0 .7-1.2 1-1.1 1.1.8.7 1.2-.3 2-.1 1.6.4-.3.5 0 .9.6.9s1.3-.7 1.6-1.5c.4-.8 1.1-1.5 1.7-1.5s0 1.2-1.4 2.6l-2.4 2.7 3.2-1.7c2-1 4.3-1.4 5.8-1 4.6 1.1 2.6-.3-3.7-2.7-6-2.2-6.7-4.1-.8-2 1.9.6 3 .6 3 0 0-.5 1.5-.2 3.3.6 2.8 1.4 3 1.4 1.3 0-1.1-.8-2.4-1.5-2.9-1.5s-.7-.6-.4-1.3c.2-.6 1-1.1 1.7-.9 1 .2 1.1 0 .2-1-.6-.8-.7-1.9-.2-2.8.7-1.2 1.1-1.2 2.7 0 1 .8.5 0-1.1-1.8-1.7-1.8-2.497-3.197-1.9-3.2m-2.2 3.997c.2 0 .7.4 1 1 .3.5-.1 1-1 1s-1.3-.5-1-1c.3-.6.8-1 1-1m-4.6 4c.6 0 1.1.4 1.1 1 0 .5-.2 1-.4 1-.3 0-.8-.5-1.1-1-.3-.6-.1-1 .4-1m16.5 2c.2 0 1 .8 1.7 1.7 1.3 1.6 1.2 1.7-.3.4-1.7-1.3-2.2-2.1-1.4-2.1m-13.914 7.03c-.315.064-.38.35-.08.875.3.5 1.6 1.1 2.8 1.4 2.2.6 2.2.5.4-.8-1.376-1.063-2.594-1.58-3.12-1.474m23.925 2.347c.262.025.637.224 1.087.624.9.7 1.3 1.497 1.1 1.697-.7.7-2.6-.7-2.6-1.9 0-.3.15-.448.413-.42m-39.612.62c2 0 2.3.3 1.3.9-.8.5-2 .7-2.8.4-2.1-.8-1.5-1.3 1.5-1.3m34 0c.3 0 .2.298-.1.698-.4.3.2 1.2 1.3 2s2 1.902 2 2.402c0 .6.9 2.2 2 3.6s1.7 2.9 1.4 3.4c-.2.5.2 1.9 1 3.1.8 1.3 1.5 3.198 1.4 4.298 0 1.1.2 4.202.6 6.902l.6 5-2.1-2-2.1-1.9 1.3 2.7c.6 1.5 1.5 2.6 1.8 2.3.4-.2.7.6.7 1.7 0 1.8-.3 1.7-2.5-.8-1.8-2.1-2.3-2.3-1.7-.9.4 1.1.8 2.4.9 3 .1.5.7 1.3 1.2 1.7.6.5.6.8-.2.8-.7 0-1.7-.8-2.3-1.8-1-1.4-1.1-1.3-.7 1 .2 1.6-.2 3.298-1 3.998-1.2.9-1.4-.3-1.3-7.8 0-4.9-.2-10.9-.5-13.3l-.5-4.4 2.2 1.9c1.9 1.6 2 1.6.9.1-.7-.9-1-1.7-.5-1.7s.1-.5-.9-1.1c-1.4-.8-1.5-1.4-.6-3 .9-1.7 1.3-1.8 2.7-.8 1.5 1.1 1.5 1.102.4-.098-.7-.8-1.7-1.5-2.2-1.5-.6 0-.9-.3-.7-.6.1-.3-.4-1.3-1.2-2.2-.7-1-1-1.7-.6-1.7.5 0 .1-.8-.8-1.8-1.5-1.6-1.4-3.2.1-3.2m8.1 2.997c1.1 0 4.5 2.5 7.6 5.5 6.782 6.358 3.587 4.21 8.1 9.2 1.8 2 3.1 4 2.8 4.5-.3.4-.1.8.4.8.9 0 5.4 6.4 5.7 8 0 .3.7 1.6 1.5 3s1.5 2.7 1.5 3 .9 2 1.9 3.9c1 1.8 1.3 3 .7 2.7-.6-.4-1.1-.2-1.1.4s-.5.8-1.1.4c-.6-.3-.4.8.5 2.4 1.8 3.5 2.1 6.2.6 6.2a1.08 1.08 0 0 0-1 1c0 .6.5.9 1.2.8 1.6-.4 3.3 9 2.4 13.6-.4 2-1.1 3.6-1.6 3.6-.6 0-1.1 1.9-1.1 4.2-.1 4-.2 3.9-1-1.6-.5-3.7-.5-6.5.1-7.5.8-1.2.9-.8.4 1.4-.5 2.9-.5 2.9 1 1.1.9-1.1 1.6-3.6 1.6-5.5v-3.6l-2 2.5c-1.1 1.4-2 2.9-2 3.5-.1.5-.9-.6-2-2.5-1.4-2.7-1.6-3.8-.7-4.9s.9-1.3.1-.8c-.7.4-1.5 0-1.8-.9-.4-1-.2-1.3.6-.8.7.4.2-.6-1-2.3-2.2-3.1-5.2-5.9-10.2-9.6-1.6-1.1-1.8-1.6-.7-1.3 2.5.8 2.1.1-1.5-2.4-1.8-1.2-2.4-1.9-1.3-1.5 4.6 1.6 5.7 1.4 2-.4-4.9-2.4-6.7-1.6-3.2 1.5 1.4 1.2 2.4 2.4 2.1 2.7-.2.2 2 2.3 5.1 4.7 5.8 4.5 7.8 7.8 2.3 3.8-1.8-1.3-4.5-3-5.9-3.7s-3.8-2.2-5.2-3.4-3.4-2.8-4.4-3.5c-1.6-1.1-1.5-1.1.5-.2 2.4 1.2 2.7.8 1.2-2-.7-1.4-.6-1.7.8-1.6 1.9.1 2.3-2.2.8-4.3-.9-1.2-.7-1.3.8-.8 1.4.6 1.6.4.9-.5-.6-.7-1.1-2.9-1.1-4.8s-.3-4.8-.7-6.4c-.5-2.4-.3-2.8 1.2-2.2 1.7.6 1.7.5 0-.8-1-.8-1.9-2-2.1-2.8a9 9 0 0 0-.9-2.6c-1.3-2 .2-3.5 2.1-2 1.5 1.2 1.6 1.1.4-.4-.8-1-1.9-1.6-2.4-1.5-.6.1-1.3-.4-1.5-1.1-.3-.8.2-1 1.4-.7 1 .3.3-.2-1.4-1-3.7-1.7-4.2-2.5-1.4-2.5m-101 0c.6 0 1.1.4 1.1 1 0 .5-.2 1-.4 1-.3 0-.8-.5-1.1-1-.3-.6-.1-1 .4-1m72.607 1.01c-.5 0 .1.9 1.5 2 2.4 1.8 6 3.3 6 2.4 0-.7-6.4-4.4-7.5-4.4m-18.343.324c-.102 0-.158.025-.158.075 0 .3.9 1 2 1.6s2 .8 2 .6c0-.3-.9-1-2-1.6-.824-.45-1.537-.675-1.842-.675m14.842.974c-1.1-.1-2 .3-2 .8 0 .6.4.8.9.5s1.1 0 1.4.8c.6 1.6 7.3 5.7 8.1 4.9s-3.6-5.3-5.1-5.3c-.7 0-1.3-.4-1.3-.8s-.9-.8-2-.9m-21.006.293c0-.2 1.8 1.398 4 3.498 2.1 2.1 4.2 5 4.5 6.6.6 2.6.5 2.5-1.6-1-1.3-2-2.8-3.7-3.4-3.7-.9 0-3.5-3.996-3.5-5.398m12.757 4.167c-.237.068.093.635.75 1.64 1.6 2.4 7.1 5.3 8.1 4.4.3-.3-1.8-2-4.6-3.7-2.7-1.686-3.945-2.426-4.25-2.34m-55.957 2.73c.3.3 0 1.1-.7 1.8-1 .9-1.1.8-.5-.6.3-1 .9-1.5 1.2-1.2m37.2.572c.55.1 1.2.928 1.6 2.428.3 1.3.4 2.996.1 3.696-.4.8-.6.7-.6-.5-.1-.9-.5-1.696-1.1-1.696-.5 0-1-.902-1-2.002 0-1.4.45-2.026 1-1.926m9.107.44 1 7-1.5-3.3c-.8-1.7-1.8-3.2-2.1-3.2s-.1.9.5 1.9c.5 1.1 1 3.9 1.1 6.3l.1 4.3 1.3-3 1.4-3 .1 2.8c0 1.6.4 2.6 1 2.2 1.6-1 1.1-4.6-1-8.5zm-13.626 5.142q.106.045.22.343c.3.8.9 1.7 1.3 2s-.1 2.1-1.2 4c-1.6 2.7-1.9 3-1.4 1 .3-1.4.6-3.9.7-5.5 0-1.276.17-1.932.38-1.843m82.974-31.19c9.85 22.584 34.268 40.818 45.276 65.56 1.375 3.09-35.293-40.22-37.393-42.52-2.29-3.622-5.81-10.317-6.727-15.463m-25.43 24.564c-.73.02-.9.43-.676 1.406.6 3 2.5 6 3.8 5.9.9 0 .9-.2-.1-.6-.6-.2-.9-1-.6-1.5.4-.6-.2-1.8-1.2-2.6-1.8-1.4-1.8-1.4.4-.9 2.7.6 2-.8-.7-1.6-.376-.074-.68-.112-.924-.106m20.724.407c-.6 0-.7.4-.4 1 .3.5 1.1 1 1.6 1 .6 0 .7-.5.4-1-.3-.6-1.1-1-1.6-1m-33.23 1.563c-.264-.126-.02.662.73 2.237 1.7 3.2 1.6 3.2-.3 2-1.1-.6-1.7-1.6-1.5-2 .3-.4 0-.8-.6-.8-.7 0-.9.7-.6 1.6s.6 2 .6 2.5c0 .6.5.7 1.2.3s.8-.3.4.5c-.4.6-.4 2.1-.1 3.2.6 1.7.9 1.9 1.6.8.5-.8.9-1.9.9-2.4 0-.6-.5-.3-1 .5s-1 1-1 .5c0-.6.9-1.9 2.1-2.8 1.7-1.5 1.9-2 .7-3l-2.7-2.7q-.3-.375-.43-.437m27.651 1.56q-.093-.012-.12.012c-.076.062.2.313.8.763 2.7 2.1 11.2 6.2 11.7 5.7.3-.2-.7-1.2-2.1-2.1-1.4-1-2.4-2.1-2.1-2.5s-.2-1.1-1.1-1.4c-1-.4-1.3-.2-.8.6.7 1.1-.5 1-5.1-.7-.6-.225-.99-.352-1.18-.375m-34.02.377.5 4.9c.3 3.3.197 4.7-.603 4.2-.6-.3-1.3 0-1.5.6-.3.7-.6.1-.6-1.4-.1-1.5-.5-3-1.1-3.3-.6-.4-.8.7-.5 2.7.4 3.1.4 3-.8-.7l-1.4-3.9-1.1 3.3c-.7 1.9-1.2 4.3-1.1 5.5 0 2.1.1 2.1 1 .1.7-1.5.8-1.2.5 1.7-.3 2.3 0 3.8.7 4.1s1.8 3.3 2.5 6.8c1.5 7.3 3 11.5 3.1 8.7.1-1.5-3.2-16.5-4.5-20.6-.5-1.4-.4-1.5.5-.2.6.8 1.1 1 1.1.4s.7-1.1 1.5-1.1c1.1 0 1.4.6.9 1.6-1.6 4-1.3 5.2.4 1.6 1.6-3.3 2.1-3.7 2.7-2.2.4.9.5 2.6.2 3.7-.3 1.2-.1 1.8.5 1.4s.7-2.4.3-5c-.3-2.5-.2-4.4.3-4.4 1 0 2.2 5.6 2.2 10.2 0 2.1-.4 2.6-1.6 2.1-1.4-.5-1.5-.1-.9 2.7.5 2.1.4 3-.3 2.6-.5-.3-1.2.4-1.6 1.7-.8 3.2-.7 4.7.4 4.7 1.3 0 4-5.4 4-8 0-1.1.5-2 1-2 1.1 0 .8-3.4-1.2-12.5-.6-2.8-1.4-4.3-1.6-3.5-.4 1-1.1.1-2.2-2.5zm-59.814.94q.092.02.206.245c.2.7.2 1.9 0 2.5-.3.7-.5.2-.5-1.2 0-1.05.112-1.59.294-1.545m90.8.677a.06.06 0 0 0-.04.02c-.074.087.05.46.35 1.16.3 1 .9 1.503 1.2 1.203s0-1.1-.7-1.8c-.437-.394-.7-.597-.81-.583m3.461 2.338a.8.8 0 0 0-.19.007c-.212.038-.26.188-.06.438.3.5 0 1.3-.6 1.7-.8.4-.7.9.2 1.5 1.9 1.2 2.9 1.1 2.9-.2 0-.5-.4-.7-1-.4-.5.3-1 .2-1-.4 0-.5.5-1.1 1.2-1.3.7-.3.5-.7-.6-1.1-.338-.15-.633-.23-.85-.246zm-46.12 1.702c-.348 0-.955.686-1.83 2.042-1 1.7-1.2 4-.8 8.8l.6 6.5.9-4.4.8-4.3 2.1 4.3c1.7 3.7 2 6.1 1.9 14.6-.1 5.7.1 10.5.5 10.7 1.4.8 1.1-14.3-.5-24.3-1.4-8.9-1.8-10.1-2.9-8.6s-1.2 1.3-.7-1.9c.394-2.306.376-3.442-.07-3.442m54.898.877c-.356.02-.53.343-.53.966 0 .5.402 1 .902 1s2.4 1.2 4.3 2.7l3.3 2.7-3.4-3.7c-2.188-2.312-3.633-3.53-4.41-3.657a1 1 0 0 0-.162-.01m-102.15.13c.07-.015.144.02.22.12.3.3.4 1.2.1 1.9-.3.8-.6.5-.6-.6-.077-.822.073-1.367.28-1.417zm69.12 1.67c-.182-.064-.296.74-.296 2.167 0 1.9.2 2.7.5 1.7.2-.9.2-2.5 0-3.5-.075-.226-.143-.344-.204-.365m-77.61.652c-.548 0-.886.34-.886 1.014a1.54 1.54 0 0 0 1.5 1.5c.8 0 1.5-.4 1.5-.9s-.7-1.1-1.5-1.5a2 2 0 0 0-.614-.114m107.66.49q-.12.006-.239.04c-.188.06-.307.183-.307.383s.7.7 1.6 1c.8.3 1.2.2.9-.4-.394-.656-1.346-1.053-1.955-1.023m-7.244.023c-1 0 .2.9 2.6 2s4.6 1.8 4.8 1.6c.7-.7-5.4-3.6-7.4-3.6m11.2 2.002c-.5 0-.002.9.998 2s2.4 2 3.1 2 2.002 1 2.802 2.2c.9 1.2 1.6 1.7 1.6 1.1 0-1.2-7.2-7.3-8.5-7.3m-13.853.343q-.075.01-.047.057c.074.125.7.45 1.9 1 1.7.7 4.1 1.6 5.5 2 2 .5 1.9.3-.5-.8a53 53 0 0 0-5.5-2c-.75-.188-1.205-.277-1.353-.257m-90.158.097q.09.02.205.246c.2.7.2 1.9 0 2.5-.3.7-.5.2-.5-1.2 0-1.05.112-1.593.294-1.546m127.78-60.936 9.311 8.85c7.573 5.87 25.155 32.452 41.202 53.437 9.807 11.924 39.312 34.196 32.912 31.896-6.168-1.672-14.194-5.73-19.5-9.4-2-1.6-12.148-9.614-19.31-18.422-9.35-8.575-29.107-39.427-38.63-54.185zm-26.697 64.92a.2.2 0 0 0-.084.025c-.188.1-.088.5.212 1.25.4 1 1.2 2.2 2 2.6.7.4 1.3 1.2 1.3 1.8 0 .5-1.2.1-2.7-.8l-2.8-1.8 2.2 3.1c1.2 1.7 3 3.7 3.9 4.5 1 .8 2.5 2.7 3.6 4.4 1 1.6 1.8 2.5 1.8 1.9s-.8-2.2-1.8-3.5-1.9-3.8-2-5.4l-.2-3 2.1 2.5 2 2.5-1.2-2.5c-.7-1.4-1.2-2.8-1.2-3.1.1-.4-.7-1.5-1.7-2.4-1.1-1-2-1.5-2-1.1s-.9.2-2-.4c-.742-.393-1.2-.596-1.426-.574m-40.972.575c-.2 0-.6.9-.9 2s-.1 2 .4 2 .9-.9.9-2-.2-2-.4-2m-6.105 4.488c-.182.024-.296.736-.296 2.01 0 1.6.2 2.2.5 1.2.2-.9.2-2.3 0-3q-.11-.225-.204-.21m-6.012.038c-.247.03-.51.548-.784 1.573-.4 1.3-.1 2.6.5 3s.9 1.6.6 2.6c-.3 1.1 0 5.1.7 8.9l1.2 6.9-.5-10.5c-.373-8.25-.976-12.562-1.716-12.473m12.785 1.73c-.153.01-.343.12-.568.344-.4.4-.7 1.9-.6 3.3v2.6l1-2.4c.75-1.95.824-3.618.31-3.825a.3.3 0 0 0-.14-.02m-47.747.155a1 1 0 0 0-.295.014.9.9 0 0 0-.628.475c-.3.5.1 1.1.9 1.5.8.3 1.5.1 1.5-.4 0-.852-.775-1.533-1.477-1.59m77.14 1.268c.824-.026 2.045.397 3.432 1.41 1.5 1 3.1 1.9 3.7 1.9.5 0 2.1.9 3.4 2 1.4 1 2.7 1.7 3 1.5.3-.3.5.2.5 1 0 2-.602 1.9-5.102-1.1-2.1-1.5-3.6-2.2-3.2-1.6.4.7-1.1.898-4.4.798-2.7-.2-4.7.1-4.4.6.3.4.1.8-.4.8-.6 0-1.3-.8-1.6-1.7-.4-1-.4-1.4 0-1.1.4.4 1.5.3 2.5-.2q1.8-1.05 2.4 0c.3.5 1 1 1.6 1 .5 0-.1-1-1.2-2.1-1.873-1.875-1.6-3.164-.23-3.208m-.162.122 2.2 2.3c1.2 1.2 2.5 2 2.8 1.7s-.7-1.3-2.2-2.3zm-17.427.43q.26-.205.52.056c.2.2-.3 2.3-1.1 4.8l-1.5 4.4.601-4c.45-3.074.958-4.853 1.478-5.257m-77.688.244q-.026-.014-.047.013c-.113.138-.138 1.113-.138 3.013 0 2.2.3 4.9.8 6 .7 1.7.9 1.5.8-1 0-1.7-.4-4.4-.8-6-.306-1.268-.497-1.964-.615-2.026m60.02 4.327q-.04-.042-.08.023c-.1.175-.174.925-.224 2.275 0 2-.3 4.9-.5 6.5s-.1 2.1.1 1.1c.4-1.8.5-1.8 1.8 0 1.2 1.6 1.3 1.3.5-2.2-.5-2.2-1-5.1-1.3-6.5-.114-.712-.21-1.115-.296-1.2m-43.823.58h.003c.122-.026.257.004.407.106.5.3.7 1.2.3 2-.7 2.1-1.3 1.9-1.3-.6 0-.826.227-1.426.59-1.505m31.914 2.07c-.183-.046-.296.498-.296 1.548 0 1.4.2 1.9.5 1.2.2-.6.2-1.8 0-2.5q-.11-.226-.204-.247m50.236 2.573c2.063.088 4.513.56 6.063 1.36 8.5 4.4 11 13.6 8.4 30.9-.8 5.2-2.3 9.9-4.4 13.9l-3.202 6.102-1.9-10.9c-3-17.9-3.5-19.902-3-11.402.5 7.2-.6 13-2.5 13-.5 0-.6-1.4-.4-3.1.3-2.2.7-2.7 1.3-1.8.6 1 .9.3.9-1.9 0-3.7-1.4-4.2-2.6-1-.6 1.7-.9.7-1.3-4.2l-.5-6.5-.5 6.5c-.4 3.9-.1 8.6.7 11.8.7 3 1.1 5.9.9 6.5-.3.7-.8-.5-1.2-2.6-.4-2-1.1-3.7-1.5-3.7s-.5-1.2-.2-2.6c.4-2.1.2-2.5-.8-1.9s-1.2.4-.7-.8c1.4-3.6 1.9-8.9 1.2-12.5l-.8-3.7-2.4 7-.7-3.9c-.4-2.1-.5-4.1-.2-4.4s.6.6.7 1.9c0 1.3.3 1.8.6 1.2.2-.7 0-2.8-.6-4.6-.8-2.3-.8-4.2-.2-5.8.9-2.2 1-2 1.2 1.6l.1 4 .8-3.5c.4-1.9 1.2-4.9 1.8-6.7.6-1.7.7-3.5.4-3.9-.4-.5.1-.3 1 .5 3 2.2 7.7 10.5 9.2 16.1.8 3 1.5 4.5 1.5 3.4.1-1.2-.6-4.1-1.4-6.4-.8-2.4-1.3-4.5-1.1-4.7.2-.3 1 1.1 1.7 3 .8 2.3 1.7 3.3 2.6 3 1-.4 1.1 0 .5 1.8-.5 1.3-.9 5.5-1.1 9.4-.3 9.3-1.7 10.3-2.4 1.8-.3-3.7-1.3-8.6-2.2-10.8-1.2-3.2-1.4-3.4-1-1 .3 1.6 1.4 8.6 2.4 15.3 1.1 6.8 2.2 12.6 2.4 12.8.2.3 1.4-1.9 2.7-4.8 1.5-3.5 2.3-7.7 2.6-13.2.2-5.6.1-7.2-.5-5.1-.5 1.6-.9 5.2-1 8-.1 2.7-.5 5.6-1 6.4s-.7-2.7-.5-8.3c.1-5.3.5-10 .9-10.5.7-1.3-1.3-6.3-2.3-5.7-.5.3-1.6-.8-2.6-2.5-1-1.6-2.2-2.6-2.8-2.3-.7.5-.9.1-.5-.9.3-1 .2-1.6-.4-1.4-.6.1-1.8-.9-2.7-2.3l-1.6-2.5 2.2 1.9c2.1 1.8 2.2 1.8 1.6.2s-.4-1.7 1.4-.7c2.2 1.2 5.5.5 4.6-1-.3-.5-1-.9-1.5-.9-.6 0-.7.5-.3 1.2.5.8.2.9-1.2.4-3.4-1.4-10.5-1.6-10.3-.3.1.7-.3 2.3-.9 3.7s-1.1 2-1.1 1.5c-.1-.6-1 .5-2.1 2.3-1.5 2.5-1.8 3.7-1 5.2 1.3 2.3 1.3 3.3.1 2.5-1.2-.7-.4 5.7 1.1 9.7.6 1.5.7 3.5.4 4.5-.4.9-.3 1.9.2 2.2s1.2 3.1 1.5 6.1l.5 5.5-1-4.5c-.5-2.5-1.4-5.4-1.9-6.5-.4-1.1-1-3.1-1.3-4.5s-.3.2 0 3.5c.3 4.4.1 5.4-.6 3.7-.5-1.2-1-6.3-1.1-11.3-.1-4.9-.4-8.7-.7-8.4-.4.3-.5 5-.4 10.3.2 5.3.1 9.4-.3 9.1-.3-.4-.6-3.7-.7-7.5-.1-4.7-.4-6.1-.9-4.4-.6 2.1-.7 2.2-.8.4-.1-2.9 3.8-14.4 6.1-17.7l1.9-2.7-2.2.3c-1.4.3-3.6 2.3-5.6 5.2-4 5.8-4.4 4.6-.5-1.6 3.1-4.8 7.6-9.2 7-7-.2.7.4 1.6 1.2 1.8 1.2.4 1.2.3.2-.5-1.1-.7-1-1.2.4-2.6.9-.9 2.3-1.5 3-1.2.8.3 1.4.1 1.4-.4 0-.75 1.676-1.05 3.74-.96m-83.245.45q.09-.01.205.21c.2.7.2 2.1 0 3-.3 1-.5.4-.5-1.2 0-1.275.112-1.987.295-2.01m111.3 1.11c.9.2 11.2 2.1 22.7 4.3l27.8 5.2c5.6 1 6.7 1.6 6.7 3.2 0 1.8-.5 1.9-5.7 1.4-6.376-.54-10.796-3.057-16.403-4.9-10.902-2.678-22.033-4.368-33.098-6.2-2.2-.4-3.8-1.3-3.8-2.1 0-.7.8-1.1 1.8-.9m-12.486.61q-.083-.033-.135.016-.07.065-.07.288c.1 1.9 1.8 5.1 1.8 3.5 0-.8-.4-2.2-.9-3-.282-.45-.53-.742-.695-.805m-68.794.074c-.235.037-.662.792-1.012 1.93-.4 1.3-3.3 4.7-6.3 7.5-2.566 2.4-4.634 4.934-5.357 6.385l1.557-1.886c1.8-2.1 2.6-2.7 2.6-1.9 0 .2-1 1.2-2.2 2.3l-2.042 1.688c-.09.208-.245.47-.258.612-.2 2.6 2.3 1.4 5.1-2.4 1-1.5 2.7-3.6 3.8-4.8 2.1-2.5 4.9-8.7 4.2-9.4a.1.1 0 0 0-.088-.03m-12.754 16.018c.03-.068.047-.127.085-.202l-.343.414zm94.725-11.113c1.637-.238 5.062.46 12.212 1.81 13.5 2.6 14 2.8 14.7 4.5.5 1.3-1.6 1.5-13.9 1.5h-14.5v-4c0-2.4-.15-3.573 1.488-3.81m-32.234.02q-.097-.03-.16.018-.083.06-.086.287c0 .5.5 1.7 1 2.5s1 1 1 .5c0-.6-.5-1.7-1-2.5-.282-.45-.562-.74-.754-.804m-8.45 1.29c.2.2-1.902 5-4.702 10.7s-5.1 9.798-5.1 9.298c0-1.3 9.4-20.494 9.8-19.997m-38.052.248c.323.025.1 1.75-.75 5.15-.7 3.2-1.6 4.8-2.3 4.4s-.8 0-.3 1.3q.75 1.95-.3.9c-.8-.8-.4-2.8 1.1-6.7 1.35-3.4 2.223-5.075 2.55-5.05m-41.605.292c.286-.122.98.458 1.954 1.658 1.3 1.6 1.203 1.702-.297.402-1-.7-1.8-1.5-1.8-1.7q0-.3.143-.36m-16.344.958c.2 0 .2 3.598 0 8.098-.3 5.4-.102 8.498.698 9.298.6.6 1.4 1.8 1.8 2.6q.6 1.8.6-.298c.1-1 .5-1.6 1-1.3.5.4 1.4-.6 2-2.1l1.1-2.8-.5 2.8c-.7 3.4.3 5.6 1.6 3.6 2.3-3.7-1.4 14-3.9 18.8-1.3 2.4-7.4 4.8-9.9 3.9-.9-.4-2-.2-2.3.5-.5.8-.9.8-1.4 0-.4-.5.2-1.9 1.4-3.1 2-2 2-2 0-2-1 0-3 1.2-4.4 2.7-2.1 2.3-2.7 2.5-4.1 1.3s-1.3-1.6 1.2-4.2l2.8-2.9-3 1.1c-1.6.6-4.3 2.3-5.9 3.8-2.5 2.4-2.7 2.4-1.7.5.6-1.2 2.1-2.9 3.3-3.7 1.2-.9 1.8-1.6 1.2-1.6-1.3 0-5.6 2.9-7.1 4.8-.7.9-1.3 1.1-1.3.5s1.2-2.2 2.6-3.7c2.4-2.3 3.5-2.6 9.3-2.6 3.9 0 7.2-.5 7.9-1.2s1.2-3.1 1.2-5.4c0-2.4.5-4.6 1-4.9.6-.3 1-1.8 1.1-3.3l.1-2.7.8 2.5c.7 2.2.8 2 .9-1.5.2-6.498 1.4-17.49 1.9-17.5zm106.69 1.995c-.204-.002-.508.282-.883.92-1.3 2-1.8 9.9-.7 10.5.7.5.9-.3.5-2.6-.7-3.6 1-3 1.9.7.3 1.1.5.1.6-2.3.1-2.9-.3-4.1-1-3.6-.8.4-.9 0-.4-1.5.373-1.31.32-2.117-.018-2.12m-3.89.464c-.418.09-.568 1.233-.493 3.558l.1 4.5 1-3.4c.6-2.3.6-3.7-.1-4.4q-.3-.3-.507-.258m95.873.6a9 9 0 0 1 1.635.033c.797.08 1.69.25 2.69.5 2.2.6 2.2.8.6 2.5-1.6 1.8-7.3 2.6-8.7 1.3-.3-.3-.1-1.5.6-2.5.676-1.125 1.698-1.714 3.175-1.834zm-78.215.17c-.125.062-.15.637-.15 1.787 0 1.4.4 3.2.9 4 .8 1.2 1 1.2.9-.5 0-1.1-.4-2.9-.9-4-.4-.9-.625-1.35-.75-1.287m90.61 2.378c.676-.05 1.48-.018 2.43.082 2.3.3 4.7.9 5.2 1.4 1 .7 19.8 3.902 23.2 3.902 2.5 0 2.5 2.798-.1 6.698-3.6 5.3-13.5 12.6-24.4 18-8.4 4.1-9.6 4.4-12 3.3-2.7-1.2-2.6-1.298 5.6-5.098 14.3-6.6 29-17.6 26.5-19.9-.8-.8-16.7-3.7-25-4.7-2.4-.3-4.3-.6-4.3-.8 0-1.874.844-2.74 2.87-2.885m-214.31.375c.046.05.095.283.146.708.2 1.8.2 4.8 0 6.5-.2 1.8-.4.403-.4-3.197 0-2.7.11-4.166.254-4.01m152.65 1.534 12.7.4c6.9.1 14.4.596 16.6.996 3.1.6 1.2.9-8.5 1.5-6.9.4-14.9 1.4-17.9 2.2-7.4 1.9-7.4 1.9-5-1.9zm-91.703.95q.09.02.204.244c.2.7.2 1.9 0 2.5-.3.7-.5.202-.5-1.198 0-1.05.113-1.592.296-1.545m1.94.595c.26.125.615.65.965 1.55.3.8.2 1.2-.4.9s-1-1-1-1.6c0-.7.173-.973.435-.85m79.563.95c2.2 0 4 .4 4 .9 0 1.6-1.7 2.1-4.9 1.5-4.4-.9-3.8-2.4.9-2.4m-86.486 1.1c.162.125.185.9.085 2.3 0 1.4-.5 2.1-.9 1.7s-.5-1.5-.1-2.4c.45-1.2.75-1.725.915-1.6m123.25.072v.006c1.912-.075 2.285.175 1.735.725-1.7 1.5-10.2 3.104-16.6 3.104-8.5 0-6.596-1.2 3.904-2.6 5.6-.75 9.048-1.154 10.96-1.23zm16.736 1.327h11.004l-10.5 2.8c-10.1 2.6-15.3 2.9-21.5 1-4.3-1.3 9.7-3.9 21-3.8zm-174.9 1.502c.2.002-.5 1.9-1.5 4.098-1.1 2.3-2.798 5.3-3.998 6.8l-2.1 2.6 2.1-4.5c2.298-4.696 4.895-8.992 5.497-8.998m193.9.098-5.4 2c-3 1-8.4 2.1-12 2.4l-6.598.5 4-1.6c5.1-2 11-3.2 16-3.2zm-73.45.926c1.526-.05 2.95.224 2.95.874 0 .8-6.1 2.2-6.9 1.5-.1-.1 0-.7.4-1.3.4-.65 2.025-1.024 3.55-1.074m80.751.074c2.375-.075 4.3.1 3.8.6-.7.7-12.6 2.2-12.6 1.6 0-.2 1-.8 2.3-1.3s4.125-.825 6.5-.9m-112.17.29c-.347-.01-.61.29-.535.815.1.7.5 2.4.9 3.8.8 2.4.8 2.4.9-.7.1-1.7-.3-3.5-.9-3.8a.76.76 0 0 0-.365-.116m-5.092 1.263c.096-.07.185-.027.26.148.2.7.1 2.9-.3 4.9-.9 5-1.702 3.4-.902-1.8.3-1.8.656-3.037.942-3.248m48.684.575c2.775-.125 5.725.124 8.275.774l3 .8-3.3.1c-1.9 0-4.4.9-5.6 1.8-1.8 1.5-2.1 2.4-1.5 5 .5 2.5.3 3.3-.8 3.3-2.2 0-6.3-5.2-5.7-7.3.5-1.5.1-1.7-2.3-1.1-3.1.7-6.6 3.4-4.5 3.4.7 0 1 .5.6 1.1-.3.6 0 1.5.7 2 .9.6.3.7-1.6.3-3.1-.8-5.7-3.2-5.1-4.9.1-.5 1.8-1.3 3.7-1.6 1.9-.4 5-1.4 6.9-2.2 1.85-.85 4.45-1.35 7.225-1.474m71.773.873c.2 0 0 .3-.5.7-.6.5-4.4 1.5-8.5 2.1-10.7 1.8-10.8 1.8-7.5 2.1 2.4.1 1.4.7-4.4 2.5-5.6 1.8-7.9 2.1-9.4 1.3-1-.5-1.5-1.3-1.1-1.8 1.8-1.5 15.8-5.1 23.2-5.9zm-238.08.114c3.488.062 6.09.338 6.09.788 0 .5-1 1-2.2 1-1.3 0-12.3.7-24.6 1.6s-22.6 1.3-22.9 1c-1.4-1.4 1.4-1.9 14.9-2.7l17.3-1.2c3.55-.4 7.923-.55 11.41-.488m182.44.86c2.024-.25 3.65-.022 3.65.828 0 .5-1.7 1.6-3.7 2.4-2.1.9-3 1.6-2 1.6.9.1 1.7.5 1.7 1 0 .4-1.2.7-2.7.4-2.7-.3-2.7-.3-.5.7 1.4.6 2 1.4 1.6 2.2-.5.7-.2.9.8.6.8-.4 1.5 0 1.5.8 0 .7-.5 1-1.1.6l-4.8-3.1c-2.1-1.2-3.8-2.7-3.8-3.1s1.5-1.7 3.3-2.9c1.6-1.05 4.023-1.776 6.05-2.027m78.726.614c.475-.237.725.114 1.025.914.4 1.1.8 4.598.8 7.798.1 4.9-.4 6.7-2.5 9.8-2.8 4-10.1 9.9-17.6 14.3-6 3.4-6.3 4.3-.5 1.4 5.8-3 16.3-10.5 18.3-13.2 1.5-2.1 1.6-2 1 3.3-.6 4.8-1.2 6-4.7 9.2-4.2 3.8-16.9 10.8-27.9 15.2-16 6.6-43.2 13.1-68.5 16.5-26.8 3.6-37.1 4.4-39.7 3-2.2-1.2-2.2-1.2-.3-2 1.1-.4 8.8-1.3 17-2 8.3-.8 14.1-1.5 13-1.6-1.1-.2-9 .3-17.5 1.1l-15.4 1.5-5.1-4.4-11.5-10.3-6.5-6 7.5-.5 27.4-1.7 19.9-1.1 3.3 3.2c3.3 3.2 3.3 3.3 1.4 4.6-2.4 1.7-2.7 6.9-.5 9.9.8 1.2 1.2 2.4.9 2.7-1.2 1.2 6.8 1.9 9.2.8 1.9-.8 2.4-1.8 2.4-4.9 0-2-.7-4.7-1.5-5.9-1.5-2.1-1.4-2.2 4.2-2.8 3.2-.3 10.3-1.3 15.8-2.1 9.5-1.4 10.1-1.4 12.5.4 3.8 2.8 6.6 3.5 9.2 2 1.3-.7 7.3-2.9 13.3-4.9 8.687-3.23 12.804-5.17 12.804-5.17 1.4 0 4.796-.03 4.996-.53 1.1-1.9-1.7-7.3-5.7-11l-4.4-4.1 8.2-4c9.6-4.6 19.5-11.8 23.3-16.8 1.2-1.55 1.9-2.374 2.375-2.612m-67.576 1.414c.6 0 2.8 1 5 2.4 2.2 1.3 3.3 2.5 2.5 2.5-1.3 0-1.3.2-.1.9 1 .6.1.8-2.6.4-3.4-.4-4.1-.3-3.9 1 .1.9 1 2.5 2 3.6 1.9 2.1 1.9 2.1-1.7.3-1.9-.9-4.5-2.9-5.7-4.5-1.9-2.4-1.9-2.7-.5-2.7s1.5-.3.6-1.4c-1.2-1.4-.5-1.8 4.4-2.5m11.5 0c4.2.1 4.3.098 1.8.998q-2.7 1.05-4.5 0c-1.4-.8-.9-1 2.7-1m-257.25.05c3.322.05 4 .45 3.35 1.25-1.4 1.7-36.4 3.2-40.1 1.7-2.2-.9-2-1 2-1.2 2.5-.1 9.5-.5 15.5-.9 9.95-.6 15.922-.9 19.25-.85m158.8.877c.047.028.097.247.147.672.2 1.8.2 5 0 7-.2 2.1-.4.6-.4-3.2 0-2.925.112-4.556.253-4.472m-208.45.973c3.6 0 6.3.7 9.5 2.6 2.4 1.4 4.4 2.8 4.4 3.1 0 1.3-13.9-.6-16.8-2.2-4.1-2.5-3.2-3.5 2.9-3.5m332.81.113c.21.012.19.112-.007.287-1.3 1.3-17.2 6.7-18.7 6.3-2.1-.5-2-.5 9.3-4 6.075-1.876 8.776-2.625 9.408-2.587zm-346.91.887c1 0 4 1.2 6.5 2.7 4.4 2.7 6.3 5.3 2.8 3.8-1-.4-3.5-1.3-5.5-1.8-5.2-1.5-6.1-.2-6.6 8.3-.4 6.9-.4 7 2.1 7 2.3 0 2.6-.5 3.2-4.8 1.2-9.4 1.5-10.1 4.2-8.4.9.6.9 2.6.1 8.5l-1.1 7.7h-4.7c-5.7 0-7.1-1.3-7.7-7.4-1-8.7 1.9-15.598 6.7-15.6m102.51 1.985c3.188-.164 10.82.362 14.793 1.112 3.7.8 5.7 1.7 5.7 2.6s-.7 1.2-1.7.9-5.8-1.2-10.8-2.2c-4.9-.9-9.2-1.8-9.4-2-.227-.225.345-.357 1.407-.412m-13.508 2.112c2.5-.1 8.203.6 12.803 1.5 11.4 2.3 9.3 4-2.4 2-4.9-.9-10.2-2-11.9-2.5-2.9-.9-2.8-.9 1.497-1m222.9.9c.6 0 1.3.4 1.6 1s-.102.7-.902.4c-1.8-.7-2.098-1.4-.698-1.4m-259.4.102h12.1c9.9-.1 14.3.4 25 2.9l13.9 3c.6 0 .3.4-.5.9s-4.9 1.1-9.1 1.5c-8.7.7-17.1-.7-32.1-5.4zm-14.465.065c1.517-.033 7.5 1.52 18.56 4.834 9.3 2.8 23.206 6.7 30.806 8.6 13.7 3.4 18.3 5.1 17.3 6.1-2 1.9-54.8-12.5-64.7-17.8-2.176-1.125-2.876-1.715-1.966-1.734m283.62.196c1.22.062 3.842 1.488 5.342 3.138l2.198 2.4-2.3-.6c-1.8-.5-2.095-.3-1.595 1 .7 1.8-1.3 1.9-2.5.2-1.2-1.6-.9-2.7.5-1.9.6.4.4-.2-.5-1.3-1-1.1-1.8-2.2-1.8-2.5 0-.324.25-.457.654-.438zM72.2 333.81c4.6 0 9.9 1.2 21.5 5 18.4 6 46.8 13.1 63.4 15.9 18.4 3.1 32 4.3 56.4 5 16.6.4 22.5.9 22.9 1.8.9 2.9-50.6.8-78.2-3.2-27.4-3.9-42.4-7.5-69-16.5-9.2-3.1-13.8-3.9-10.4-1.9 3.7 2.1 23.8 9.8 33.3 12.7 29.8 9.2 70 14.2 114.6 14.2h13.5l6.8 7h-26c-25.6 0-44.4-.9-61.9-3.1-12.5-1.5-33.4-5.8-36.7-7.5-1.5-.8-3.8-1.4-5.2-1.4-5.9 0-50.6-19.4-50.6-21.9 0-.6 1.9-1.1 4.3-1.2l4.2-.1-3.2-1.1c-6.4-2.4-6.2-3.7.3-3.7m217.8 1c.2 0 .6 1.5.8 3.4s0 3.2-.4 3c-.8-.5-1.2-6.4-.4-6.4m46.848 2.15c4.6 0 8.85.25 9.65.75 2.4 1.5-6.2 2.3-15.7 1.5-6.6-.6-8-.9-5.7-1.5 2.2-.5 7.15-.75 11.75-.75m-275.54.024c.963 0 1.738.775 1.588 2.325-.2 1.1-.6 4.7-.9 8-1.6 15 8.571 33.058 21.9 41.4 22.6 12.8 64.3 20.3 112.2 20 112.52-1.762 113.6-5.078-1.5-2.236-43.467-1.69-59.1-3.064-84.5-10.264-11.2-3.1-25.7-10.2-31-14.9l-4-3.7 3.5 2c9.2 5.3 31.2 12 51 15.6 26.5 4.9 69.7 7.1 107.9 5.5 14.5-.6 26.7-.7 27.2-.2s1 2 1.1 3.3c.3 2.5.2 2.5-11.2 3.6-23.5 2.4-75.8 3.8-92.2 2.6-36.8-2.8-68.203-11.227-84.903-23.627-8.33-5.91-15.393-17.856-18.297-27.473-1.8-6.2-2.1-15.7-.6-19.6.6-1.55 1.75-2.325 2.712-2.325m124.8.138c.24-.062.888.037 1.988.287 1.7.4 3.2.8 3.4 1 1 .9-3.5.3-4.9-.6-.55-.4-.726-.624-.488-.687m101.98.557c.06-.002.13.1.205.33.2 1 .2 2.8 0 4-.2 1.3-.4.5-.4-1.7-.073-1.65.017-2.626.195-2.63m28.94 1.368c2.114.087 4.864.512 9.764 1.362 5.1.9 9.5 1.8 9.7 2 .7.7-2.7.5-15.9-.8-8.8-.9-11.6-1.4-9.5-1.9 2.35-.5 3.825-.75 5.937-.662m35.89 1.887c1.326.025 2.875.375 5.175 1.075 3.8 1.1 3.9 1.2 1.5 1.9-3.2.9-12.6.9-16.5-.1l-3-.8 3.502-.2c1.9-.1 4.4-.5 5.5-1 1.4-.6 2.5-.9 3.824-.875m-126.41.156c3.735-.124 8.024.38 12.186 1.62 14.2 4.3 22.7 6.3 29.4 6.8 5.8.5 6.5.8 4 1.4-4.3 1.1-37.6 3.1-38.4 2.4-.3-.4.402-1.5 1.702-2.5 3.1-2.6 1.2-3.3-4-1.5-2.4.8-4.6 1.5-5 1.5-1.5 0-.8-1.8 1-2.4.9-.3 2.8-1.3 4.2-2.1l2.5-1.5h-2.8c-3 0-8 2.2-10.9 4.8-1 .8-1.8 1.1-1.8.5 0-1.1 4.9-5.8 7-6.7.8-.3.2-.4-1.5-.1-1.6.3-4.2 1.5-5.7 2.6-2.1 1.5-2.8 1.6-2.8.6 0-3.25 4.686-5.21 10.91-5.42m152.02.806c.6.063 2.17 1.363 4.17 3.813 1.7 2.2 5.8 6.1 9 8.7 6.1 4.8 7.303 7.1 2.103 3.8-4.2-2.7-10.4-8.5-13.6-12.7-1.9-2.5-2.273-3.675-1.673-3.613m-235.63.013c2.6 0 4.7.3 4.7.9 0 1.1-2.1 1.1-6.5 0-2.7-.7-2.502-.8 1.798-.9zm-76.4.9c.5 0 6.398 2.7 13.198 6 6.8 3.2 17 7.7 22.7 9.8l10.4 3.9-2.7 1.7c-1.4.9-3.3 3.2-4.2 5.1l-1.6 3.4-5.6-2.1c-9.1-3.4-23.6-10.3-28.5-13.7-4.5-3.1-4.6-3.3-4.6-8.6 0-3 .4-5.5.9-5.5m243.6.2c2.2 0 6.3.3 9 .8l5 .7-4.5.1c-2.5 0-6.5-.3-9-.7l-4.5-.8zm25.528 1.825c2.625-.125 4.97.175 4.97.975 0 .5-.8 1-1.9 1-1 0-3.994.3-6.694.6-4.6.5-4.8.4-3-1 1.1-.9 4-1.45 6.624-1.575m35.285.188c2.538-.238 3.79.186 4.59 1.186.9 1.1-1 1.9-10.7 4.5-19 5-50.003 8.9-51.503 6.4-.6-1 9.8-2.6 18-2.7 2.2-.1 3.9-.4 3.7-.7s2.7-1.098 6.4-1.798 11.4-2.5 17.2-4.1c5.95-1.65 9.775-2.55 12.313-2.788m-187.25 3.85c1.636.112 3.437.638 4.537 1.538 1.8 1.5 1.7 1.5-1.5 1-1.8-.3-4.2-.6-5.3-.6-1 0-1.6-.5-1.3-1 .45-.75 1.924-1.05 3.562-.938zm139.62 1.312c1.187.075 1.76.475 2.01 1.225.5 1.5-5.7 2.4-18.7 2.9l-10.5.3 8.5-1.4c4.7-.7 10.502-1.8 13.002-2.3 2.7-.55 4.5-.8 5.688-.725m55.512.725c.9 0 4.3 2.3 7.5 5.2l6.614 4.994-8.814 3.506c-11.8 4.5-12.4 4.5-14-.3-.8-2.2-2.7-5.1-4.2-6.5l-2.8-2.5 7-2.1c3.8-1.2 7.8-2.2 8.7-2.3m-215.45 1.075c2.35.15 6.6.726 14.55 1.826 15.7 2.1 19.4 3.6 6.9 2.7-12.8-1-25.2-2.9-24.6-3.8.35-.6.8-.876 3.15-.726m-113.08.96c.207-.04.478-.01.828.064 1.2.2 2.3 2.4 3.6 7.5 1 4 3.4 10.402 5.3 14.302 2 3.8 3.3 7 3.1 7-.3 0-2.3-2.7-4.5-6.1-4-6.1-7.1-13.5-8.5-19.7-.45-2.18-.448-2.944.17-3.066m15.13 2.765 5.797 3.7c3.2 2.1 9.7 5.4 14.4 7.4s10.9 4.5 13.8 5.4c3.1 1.1 5.2 2.3 5.2 3.2 0 2.9 3.1 7.4 6.1 8.9 3.8 2 7.9 1.2 11.9-2.1 2.6-2.2 3.3-2.4 6.7-1.5 2.1.5 8.5 1.7 14.3 2.6 28.5 4.5 34 4.8 75 5.1l40.5.3 2.4 3.6c1.3 1.9 2.2 3.7 1.9 4-.2.3-11.3.9-24.5 1.4-39.3 1.6-85.6-.9-111.8-6-19.2-3.6-45.1-12.2-53.2-17.5-2.7-1.7-6.9-9.6-7.8-14.8zm243.1.213c.25-.313 1 .087 2.1 1.387.6.8 1.003 2.1.803 2.9-.2 1.1-.8.7-2-1.4-.9-1.55-1.153-2.575-.903-2.887m-65.8.987c.9-.098 5.2 3.5 9.5 8 4.4 4.5 15 14.4 23.7 22.1 8.6 7.7 15.7 14.5 15.7 15.1s-1 .1-2.2-1l-12.3-10.5c-15.3-13.1-36.2-33.7-34.4-33.7m56.416.1c3.713.05 5.735.45 6.385 1.2 1.8 2.1.203 2.4-26.197 3.7-17.6.9-24.4.9-26.2.1-5.1-2.3-2.6-3.2 9.3-3.3 6.4-.1 15.497-.4 20.197-.8 7.4-.65 12.803-.95 16.515-.9m53.386.9c.8 0 1.2.2.8.5-.3.4.198 2.3 1.298 4.4l1.9 3.8-10.7 1.6c-22.2 3.3-21.3 3.4-25.2-1l-3.4-3.9 4-.7c3.6-.7 28.1-4.3 31.3-4.7zm8.436 0c.813.03 1.715.55 2.865 1.6 1 .9 1.796 2 1.796 2.5 0 1.3-2.7.9-4-.7-.7-.8-1.598-1.5-2.098-1.5-1.6 0-.9 3 1.1 5 2.2 2.2 6.6 2.7 7.3.7.3-.6.6-.2.6 1 .1 3-2.6 3-7 0-3.7-2.5-4.7-5-2.9-7.2.8-.95 1.526-1.42 2.338-1.4m60.372.956q.29.066.29.444c0 1.9-3.496 6.8-6.296 8.9-7.5 5.8-31.9 15-55.5 21.2-12.7 3.2-47.003 9.5-59.703 10.9-5.8.7-6.1.6-8.9-2.4-2.2-2.2-2.5-3.2-1.5-3.5.8-.2 8.4-1.2 16.9-2.1 30.8-3.4 54.6-8.1 74.5-14.7 12.8-4.3 29.8-12 35.5-16.1 2.625-1.95 4.123-2.774 4.71-2.644m-303.86 6.082c1.4.087 2.7.562 3.95 1.462 3.4 2.3 3.1 9.5-.4 12.3-1.5 1.2-3.7 2.1-4.9 2.1s-3.4-.9-4.9-2.1c-4.2-3.3-3.2-10.9 1.7-12.9 1.65-.65 3.15-.95 4.55-.862m8.651.863c.204 0 4.203.9 8.7 1.9 22.5 5.2 46.1 7.3 84 7.5l29.7.1 2.8 2.7c1.5 1.5 3.6 4 4.6 5.7l1.7 2.9-10.8.7c-15.5 1.1-63.4-.1-79.2-2-13.4-1.5-35.9-5-39.3-6.1-1.4-.4-1.6-1.3-1.1-4.2.3-2 .1-4.9-.5-6.5-.6-1.5-.9-2.7-.6-2.7m-8.534 1.648c-1.288-.125-2.663.05-3.763.55-4.3 2.1-4.1 9.3.3 10.4 3.4.8 6.3-.3 7.1-2.9.9-2.4.6-5.8-.4-6.8-.75-.7-1.95-1.125-3.238-1.25m196.54 4.55-4 .1c-2.2 0-5.6.2-7.5.4s-10 .8-18 1.3l-14.5.9 18-.5c9.9-.3 19.8-.9 22-1.3zm101.62 1.073c.875-.125.375.626-1.125 2.226-1.2 1.3-5.9 3.7-10.4 5.3-7.6 2.8-30.6 9.298-32.3 9.098-.4 0 6.2-2.4 14.7-5.2 8.5-2.9 18.4-6.7 22-8.4 4-1.9 6.25-2.9 7.125-3.024m-95.94.69c1.772-.285 4.19.71 5.316 2.436 1.3 1.9 1.4 2.9.5 4.5-1.4 2.6-3.4 2.7-6 .1-2-2-2.6-5.003-1.3-6.303.376-.4.893-.638 1.484-.733m-62.682 7.837 7.5 5.9c4.1 3.2 10.7 8.2 14.7 11.1 6.7 4.9 9.1 7.7 7.8 9-1.4 1.4-8-3.8-18.6-14.5z"/></svg>